<?xml version="1.0" encoding="UTF-8" standalone="no"?>
<svg width="255px" height="277px" viewBox="0 0 255 277" version="1.1" xmlns="http://www.w3.org/2000/svg" xmlns:xlink="http://www.w3.org/1999/xlink" xmlns:sketch="http://www.bohemiancoding.com/sketch/ns">
    <!-- Generator: Sketch 3.0.3 (7891) - http://www.bohemiancoding.com/sketch -->
    <title>code-park-bird</title>
    <desc>Created with Sketch.</desc>
    <defs>
        <path d="M13.4863281,11.9199219 C12.9238253,11.2167934 12.2382853,10.7011735 11.4296875,10.3730469 C10.6210897,10.0449202 9.7597702,9.88085938 8.84570312,9.88085938 C7.87304201,9.88085938 7.00586318,10.0683575 6.24414062,10.4433594 C5.48241807,10.8183612 4.8349636,11.3310514 4.30175781,11.9814453 C3.76855202,12.6318392 3.36132953,13.3935503 3.08007812,14.2666016 C2.79882672,15.1396528 2.65820312,16.0742138 2.65820312,17.0703125 C2.65820312,18.0546924 2.78124877,18.9746051 3.02734375,19.8300781 C3.27343873,20.6855512 3.64843498,21.4296843 4.15234375,22.0625 C4.65625252,22.6953157 5.29491801,23.1904279 6.06835938,23.5478516 C6.84180074,23.9052752 7.7558541,24.0839844 8.81054688,24.0839844 C10.7910255,24.0839844 12.5663984,23.4043037 14.1367188,22.0449219 L14.9453125,24.4707031 C14.0898395,25.150394 13.1347709,25.6425766 12.0800781,25.9472656 C11.0253854,26.2519546 9.85938139,26.4042969 8.58203125,26.4042969 C7.09374256,26.4042969 5.79004466,26.1611352 4.67089844,25.6748047 C3.55175222,25.1884741 2.61719125,24.5263714 1.8671875,23.6884766 C1.11718375,22.8505817 0.554689375,21.8691463 0.1796875,20.7441406 C-0.195314375,19.619135 -0.3828125,18.4238345 -0.3828125,17.1582031 C-0.3828125,15.8456966 -0.183595742,14.6035215 0.21484375,13.4316406 C0.613283242,12.2597598 1.19335557,11.2373091 1.95507812,10.3642578 C2.71680068,9.49120657 3.65429131,8.79980724 4.76757812,8.29003906 C5.88086494,7.78027089 7.1523366,7.52539062 8.58203125,7.52539062 C10.0000071,7.52539062 11.2421822,7.74804465 12.3085938,8.19335938 C13.3750053,8.6386741 14.2070283,9.25390232 14.8046875,10.0390625 L13.4863281,11.9199219 Z M27.2851562,7.52539062 C28.7968826,7.52539062 30.1240177,7.77148191 31.2666016,8.26367188 C32.4091854,8.75586184 33.3613243,9.42968322 34.1230469,10.2851562 C34.8847694,11.1406293 35.4589824,12.1425724 35.8457031,13.2910156 C36.2324238,14.4394589 36.4257812,15.6699153 36.4257812,16.9824219 C36.4257812,18.2480532 36.2236348,19.4521427 35.8193359,20.5947266 C35.415037,21.7373104 34.8232461,22.7392535 34.0439453,23.6005859 C33.2646445,24.4619184 32.300787,25.1445287 31.1523438,25.6484375 C30.0039005,26.1523463 28.6914136,26.4042969 27.2148438,26.4042969 C25.7148362,26.4042969 24.3906307,26.1582056 23.2421875,25.6660156 C22.0937443,25.1738257 21.1298867,24.5058636 20.3505859,23.6621094 C19.5712852,22.8183552 18.9794942,21.825201 18.5751953,20.6826172 C18.1708964,19.5400333 17.96875,18.3183659 17.96875,17.0175781 C17.96875,15.7167904 18.1738261,14.4892636 18.5839844,13.3349609 C18.9941427,12.1806583 19.5947226,11.1728559 20.3857422,10.3115234 C21.1767618,9.45019101 22.1494083,8.7705103 23.3037109,8.27246094 C24.4580136,7.77441157 25.7851488,7.52539062 27.2851562,7.52539062 Z M33.3671875,17.0175781 C33.3671875,16.0566358 33.2441419,15.1425825 32.9980469,14.2753906 C32.7519519,13.4081988 32.3769556,12.6494173 31.8730469,11.9990234 C31.3691381,11.3486296 30.7304726,10.8330097 29.9570313,10.4521484 C29.1835899,10.0712872 28.2695365,9.88085938 27.2148438,9.88085938 C26.1953074,9.88085938 25.298832,10.0771465 24.5253906,10.4697266 C23.7519493,10.8623067 23.1044948,11.3896451 22.5830078,12.0517578 C22.0615208,12.7138705 21.6689466,13.4785113 21.4052734,14.3457031 C21.1416002,15.212895 21.0097656,16.1152297 21.0097656,17.0527344 C21.0097656,17.9902391 21.1416002,18.8808552 21.4052734,19.7246094 C21.6689466,20.5683636 22.0615208,21.3154264 22.5830078,21.9658203 C23.1044948,22.6162142 23.7578086,23.131834 24.5429688,23.5126953 C25.3281289,23.8935566 26.2421823,24.0839844 27.2851563,24.0839844 C28.3164114,24.0839844 29.2128868,23.8906269 29.9746094,23.5039062 C30.7363319,23.1171856 31.3691381,22.5986361 31.8730469,21.9482422 C32.3769556,21.2978483 32.7519519,20.5478558 32.9980469,19.6982422 C33.2441419,18.8486286 33.3671875,17.9550828 33.3671875,17.0175781 Z M54.2324219,26 L54.1621094,23.4160156 C53.4003868,24.494146 52.5185597,25.2617165 51.5166016,25.71875 C50.5146434,26.1757835 49.3222725,26.4042969 47.9394531,26.4042969 C46.5449149,26.4042969 45.3349661,26.1611352 44.3095703,25.6748047 C43.2841746,25.1884741 42.4375033,24.5234417 41.7695312,23.6796875 C41.1015592,22.8359333 40.6035173,21.8486385 40.2753906,20.7177734 C39.947264,19.5869084 39.7832031,18.3828189 39.7832031,17.1054688 C39.7832031,15.8398374 39.956053,14.6298886 40.3017578,13.4755859 C40.6474627,12.3212833 41.1689418,11.3017622 41.8662109,10.4169922 C42.56348,9.53222214 43.4306589,8.82910417 44.4677734,8.30761719 C45.504888,7.78613021 46.7089775,7.52539062 48.0800781,7.52539062 C49.3808659,7.52539062 50.5497995,7.77148191 51.5869141,8.26367188 C52.6240286,8.75586184 53.4824185,9.46483912 54.1621094,10.390625 L54.1621094,-0.2265625 L57.0625,-0.2265625 L57.0625,21.5 C57.0742188,22.2031285 57.0888671,22.9589803 57.1064453,23.7675781 C57.1240235,24.5761759 57.1445311,25.3203091 57.1679688,26 L54.2324219,26 Z M48.3964844,24.0839844 C49.3457079,24.0839844 50.1806605,23.8994159 50.9013672,23.5302734 C51.6220739,23.161131 52.2255835,22.6396518 52.7119141,21.9658203 C53.1982446,21.2919888 53.5644519,20.4804735 53.8105469,19.53125 C54.0566419,18.5820265 54.1796875,17.5273496 54.1796875,16.3671875 C54.1796875,15.3945264 54.0478529,14.5097696 53.7841797,13.7128906 C53.5205065,12.9160116 53.1425806,12.2334013 52.6503906,11.6650391 C52.1582007,11.0966768 51.5664097,10.6572281 50.875,10.3466797 C50.1835903,10.0361313 49.4101605,9.88085938 48.5546875,9.88085938 C47.5585888,9.88085938 46.7001989,10.0742168 45.9794922,10.4609375 C45.2587855,10.8476582 44.6640648,11.3691373 44.1953125,12.0253906 C43.7265602,12.6816439 43.3808605,13.4462847 43.1582031,14.3193359 C42.9355458,15.1923872 42.8242188,16.1152295 42.8242188,17.0878906 C42.8242188,18.0019577 42.9208975,18.8808552 43.1142578,19.7246094 C43.3076182,20.5683636 43.6240212,21.3124968 44.0634766,21.9570312 C44.5029319,22.6015657 45.0771449,23.1171856 45.7861328,23.5039062 C46.4951207,23.8906269 47.3652292,24.0839844 48.3964844,24.0839844 Z M78.2089844,23.9785156 C77.2363233,24.8222698 76.158209,25.4374981 74.9746094,25.8242188 C73.7910097,26.2109394 72.4492262,26.4042969 70.9492188,26.4042969 C69.5312429,26.4042969 68.2656306,26.1728539 67.1523438,25.7099609 C66.0390569,25.247068 65.0986367,24.6025432 64.3310547,23.7763672 C63.5634727,22.9501912 62.9775411,21.9628964 62.5732422,20.8144531 C62.1689433,19.6660099 61.9667969,18.4062569 61.9667969,17.0351562 C61.9667969,15.7343685 62.1660136,14.5097714 62.5644531,13.3613281 C62.9628926,12.2128849 63.5429649,11.2050825 64.3046875,10.3378906 C65.0664101,9.47069879 65.9951117,8.78515877 67.0908203,8.28125 C68.1865289,7.77734123 69.437493,7.52539062 70.84375,7.52539062 C72.2265694,7.52539062 73.4277293,7.75097431 74.4472656,8.20214844 C75.466802,8.65332257 76.3046842,9.27441011 76.9609375,10.0654297 C77.6171908,10.8564493 78.1064437,11.7968696 78.4287109,12.8867188 C78.7509782,13.9765679 78.9121094,15.1601499 78.9121094,16.4375 C78.9121094,16.5664069 78.9091797,16.7158195 78.9033203,16.8857422 C78.8974609,17.0556649 78.8886719,17.2109368 78.8769531,17.3515625 L65.0429688,17.3515625 L65.0957031,18.1425781 C65.166016,19.0214888 65.3447251,19.8242151 65.6318359,20.5507812 C65.9189467,21.2773474 66.3144506,21.9042942 66.8183594,22.4316406 C67.3222681,22.958987 67.9345667,23.3662095 68.6552734,23.6533203 C69.3759802,23.9404311 70.1992141,24.0839844 71.125,24.0839844 C72.3671937,24.0839844 73.5039011,23.8671897 74.5351562,23.4335938 C75.5664114,22.9999978 76.4921834,22.3789103 77.3125,21.5703125 L78.2089844,23.9785156 Z M75.8710938,15.2949219 L75.8535156,15.0488281 C75.7949216,14.2871056 75.645509,13.5898469 75.4052734,12.9570312 C75.1650379,12.3242156 74.8339865,11.7792992 74.4121094,11.3222656 C73.9902323,10.8652321 73.4775421,10.5107434 72.8740234,10.2587891 C72.2705048,10.0068347 71.5878944,9.88085938 70.8261719,9.88085938 C70.0058553,9.88085938 69.2675814,10.0244126 68.6113281,10.3115234 C67.9550748,10.5986342 67.3896508,10.9882788 66.9150391,11.4804688 C66.4404273,11.9726587 66.0566421,12.5468717 65.7636719,13.203125 C65.4707017,13.8593783 65.2714849,14.5566369 65.1660156,15.2949219 L75.8710938,15.2949219 Z M96.7714844,33.5058594 L93.8886719,33.5058594 L93.8886719,12.6757812 C93.8886719,12.4296863 93.8857422,12.1279315 93.8798828,11.7705078 C93.8740234,11.4130842 93.8652344,11.0234396 93.8535156,10.6015625 C93.8417968,10.1796854 93.8271485,9.74316632 93.8095703,9.29199219 C93.7919921,8.84081806 93.7714845,8.39843967 93.7480469,7.96484375 L96.6835938,7.96484375 L96.7714844,10.53125 C97.5097693,9.53515127 98.3974558,8.78515877 99.4345703,8.28125 C100.471685,7.77734123 101.605463,7.52539062 102.835938,7.52539062 C104.253913,7.52539062 105.48144,7.77148191 106.518555,8.26367188 C107.555669,8.75586184 108.414059,9.42089425 109.09375,10.2587891 C109.773441,11.0966839 110.280272,12.0722601 110.614258,13.1855469 C110.948244,14.2988337 111.115234,15.4824156 111.115234,16.7363281 C111.115234,18.0019595 110.942385,19.2177676 110.59668,20.3837891 C110.250975,21.5498105 109.735355,22.5781205 109.049805,23.46875 C108.364254,24.3593795 107.502935,25.0712864 106.46582,25.6044922 C105.428706,26.137698 104.218757,26.4042969 102.835938,26.4042969 C100.304675,26.4042969 98.2832107,25.4785249 96.7714844,23.6269531 L96.7714844,33.5058594 Z M96.7714844,17.3164062 C96.7714844,18.2890674 96.89453,19.1884724 97.140625,20.0146484 C97.38672,20.8408244 97.7470679,21.555661 98.2216797,22.1591797 C98.6962914,22.7626983 99.2851527,23.2343733 99.9882812,23.5742188 C100.69141,23.9140642 101.499995,24.0839844 102.414062,24.0839844 C103.398442,24.0839844 104.245114,23.8847676 104.954102,23.4863281 C105.663089,23.0878886 106.243162,22.5546908 106.694336,21.8867188 C107.14551,21.2187467 107.479491,20.4482466 107.696289,19.5751953 C107.913087,18.7021441 108.021484,17.7910204 108.021484,16.8417969 C108.021484,15.9511674 107.927735,15.0869183 107.740234,14.2490234 C107.552733,13.4111286 107.245119,12.6669954 106.817383,12.0166016 C106.389646,11.3662077 105.824222,10.8476582 105.121094,10.4609375 C104.417965,10.0742168 103.550786,9.88085938 102.519531,9.88085938 C101.441401,9.88085938 100.536136,10.0859354 99.8037109,10.4960938 C99.0712854,10.9062521 98.4794944,11.4540981 98.0283203,12.1396484 C97.5771462,12.8251987 97.2548838,13.6162065 97.0615234,14.5126953 C96.8681631,15.4091842 96.7714844,16.3437451 96.7714844,17.3164062 Z M122.628906,7.52539062 C123.367191,7.52539062 124.041013,7.59277276 124.650391,7.72753906 C125.259769,7.86230536 125.822263,8.05273314 126.337891,8.29882812 C126.853518,8.54492311 127.328123,8.84960756 127.761719,9.21289062 C128.195315,9.57617369 128.599607,9.98632584 128.974609,10.4433594 L129.080078,7.96484375 L131.945312,7.96484375 L131.875,12.4121094 L131.875,26 L128.974609,26 L129.009766,23.46875 C128.728514,23.8437519 128.374026,24.2099592 127.946289,24.5673828 C127.518553,24.9248065 127.035159,25.2382799 126.496094,25.5078125 C125.957029,25.7773451 125.362308,25.9941398 124.711914,26.1582031 C124.06152,26.3222664 123.37891,26.4042969 122.664063,26.4042969 C121.656245,26.4042969 120.742192,26.2724623 119.921875,26.0087891 C119.101558,25.7451159 118.369144,25.3818383 117.724609,24.9189453 C117.080075,24.4560524 116.52051,23.9140656 116.045898,23.2929688 C115.571287,22.6718719 115.181642,22.0039098 114.876953,21.2890625 C114.572264,20.5742152 114.343751,19.8330117 114.191406,19.0654297 C114.039062,18.2978477 113.962891,17.5390662 113.962891,16.7890625 C113.962891,15.6289004 114.1416,14.4921931 114.499023,13.3789062 C114.856447,12.2656194 115.395504,11.275395 116.116211,10.4082031 C116.836918,9.54101129 117.739252,8.84375264 118.823242,8.31640625 C119.907232,7.78905986 121.175774,7.52539062 122.628906,7.52539062 Z M122.962891,24.0839844 C123.783207,24.0839844 124.553707,23.9169939 125.274414,23.5830078 C125.995121,23.2490218 126.627927,22.7568392 127.172852,22.1064453 C127.717776,21.4560514 128.151366,20.6474658 128.473633,19.6806641 C128.7959,18.7138624 128.962891,17.5976626 128.974609,16.3320312 C128.974609,15.3828078 128.831056,14.5156289 128.543945,13.7304688 C128.256835,12.9453086 127.849612,12.2656279 127.322266,11.6914062 C126.794919,11.1171846 126.153324,10.6718766 125.397461,10.3554688 C124.641598,10.0390609 123.794927,9.88085938 122.857422,9.88085938 C122.142575,9.88085938 121.49805,9.9775381 120.923828,10.1708984 C120.349607,10.3642588 119.839846,10.6308577 119.394531,10.9707031 C118.949217,11.3105486 118.562502,11.7089821 118.234375,12.1660156 C117.906248,12.6230492 117.63672,13.1123021 117.425781,13.6337891 C117.214843,14.155276 117.059571,14.6972628 116.959961,15.2597656 C116.860351,15.8222684 116.810547,16.3789035 116.810547,16.9296875 C116.810547,17.4687527 116.848632,18.0224581 116.924805,18.5908203 C117.000977,19.1591825 117.126952,19.7070286 117.302734,20.234375 C117.478517,20.7617214 117.718748,21.2597633 118.023438,21.7285156 C118.328127,22.197268 118.706052,22.6044905 119.157227,22.9501953 C119.608401,23.2959002 120.147458,23.571288 120.774414,23.7763672 C121.40137,23.9814463 122.130855,24.0839844 122.962891,24.0839844 Z M140.101562,26 L137.201172,26 L137.201172,12.3066406 C137.201172,11.5683557 137.189453,10.8300818 137.166016,10.0917969 C137.142578,9.35351193 137.119141,8.64453465 137.095703,7.96484375 L139.996094,7.96484375 L140.101562,10.6894531 C140.593752,9.69335439 141.261715,8.91992463 142.105469,8.36914062 C142.949223,7.81835662 143.886714,7.54296875 144.917969,7.54296875 C145.59766,7.54296875 146.230466,7.61328055 146.816406,7.75390625 L146.851562,10.4785156 C146.605468,10.3496087 146.306642,10.2470707 145.955078,10.1708984 C145.603514,10.0947262 145.228518,10.0566406 144.830078,10.0566406 C144.12695,10.0566406 143.482425,10.1943346 142.896484,10.4697266 C142.310544,10.7451186 141.812502,11.1406224 141.402344,11.65625 C140.992185,12.1718776 140.672853,12.7988244 140.444336,13.5371094 C140.215819,14.2753943 140.101562,15.1015579 140.101562,16.015625 L140.101562,26 Z M153.25,-0.2265625 L153.25,15.6816406 L161.441406,7.96484375 L165.396484,7.96484375 L156.080078,16.4726562 C157.73243,18.0546954 159.396476,19.6425702 161.072266,21.2363281 C162.748055,22.8300861 164.412101,24.4179608 166.064453,26 L162.214844,26 L153.25,17.1933594 L153.25,26 L150.349609,26 L150.349609,-0.2265625 L153.25,-0.2265625 Z" id="path-1"></path>
        <path id="path-3" d="M169.160156,27.3378906 C169.71094,27.3378906 170.170897,27.2734381 170.540039,27.1445312 C170.909182,27.0156244 171.202147,26.7900407 171.418945,26.4677734 C171.635743,26.1455062 171.791015,25.7119168 171.884766,25.1669922 C171.978516,24.6220676 172.025391,23.9394572 172.025391,23.1191406 C172.025391,22.5214814 172.019531,21.8769566 172.007812,21.1855469 C171.996094,20.4941372 171.990234,19.861331 171.990234,19.2871094 C171.990234,18.8886699 172.022461,18.4609398 172.086914,18.0039062 C172.151368,17.5468727 172.271483,17.098635 172.447266,16.6591797 C172.623048,16.2197244 172.866209,15.8154315 173.176758,15.4462891 C173.487306,15.0771466 173.894529,14.7753918 174.398438,14.5410156 C174.140624,14.4003899 173.868165,14.2011732 173.581055,13.9433594 C173.293944,13.6855456 173.030275,13.3603535 172.790039,12.9677734 C172.549803,12.5751933 172.347657,12.1123074 172.183594,11.5791016 C172.01953,11.0458958 171.9375,10.4335972 171.9375,9.7421875 L171.919922,4.66210938 C171.919922,4.09960656 171.861329,3.63379091 171.744141,3.26464844 C171.626953,2.89550597 171.454103,2.59668083 171.225586,2.36816406 C170.997069,2.13964729 170.709963,1.97558644 170.364258,1.87597656 C170.018553,1.77636669 169.61719,1.72070318 169.160156,1.70898438 L169.160156,-0.505859375 C170.20313,-0.505859375 171.084957,-0.38281373 171.805664,-0.13671875 C172.526371,0.10937623 173.112302,0.463864873 173.563477,0.926757812 C174.014651,1.38965075 174.339843,1.95507479 174.539062,2.62304688 C174.738282,3.29101896 174.837891,4.0527301 174.837891,4.90820312 C174.814453,5.64648807 174.802734,6.38769159 174.802734,7.13183594 C174.802734,7.87598028 174.791016,8.61718381 174.767578,9.35546875 C174.767578,9.94140918 174.820312,10.4775366 174.925781,10.9638672 C175.031251,11.4501977 175.195311,11.8691389 175.417969,12.2207031 C175.640626,12.5722674 175.933592,12.8564442 176.296875,13.0732422 C176.660158,13.2900401 177.099607,13.4218748 177.615234,13.46875 L177.597656,15.6132812 C176.917965,15.6835941 176.390627,15.8593736 176.015625,16.140625 C175.640623,16.4218764 175.365235,16.7705057 175.189453,17.1865234 C175.013671,17.6025411 174.908203,18.0712865 174.873047,18.5927734 C174.83789,19.1142604 174.820312,19.6445286 174.820312,20.1835938 L174.837891,24.8066406 C174.837891,25.6503948 174.697267,26.3652314 174.416016,26.9511719 C174.134764,27.5371123 173.73926,28.0175762 173.229492,28.3925781 C172.719724,28.76758 172.119144,29.0458975 171.427734,29.2275391 C170.736325,29.4091806 169.980473,29.5175779 169.160156,29.5527344 L169.160156,27.3378906 Z"></path>
        <path id="path-5" d="M-4.05078125,29.5527344 C-4.87109785,29.5175779 -5.62694967,29.4091806 -6.31835938,29.2275391 C-7.00976908,29.0458975 -7.61034901,28.76758 -8.12011719,28.3925781 C-8.62988536,28.0175762 -9.02538922,27.5371123 -9.30664062,26.9511719 C-9.58789203,26.3652314 -9.72851562,25.6503948 -9.72851562,24.8066406 L-9.7109375,20.1835938 C-9.7109375,19.6445286 -9.72851545,19.1142604 -9.76367188,18.5927734 C-9.7988283,18.0712865 -9.904296,17.6025411 -10.0800781,17.1865234 C-10.2558603,16.7705057 -10.5312481,16.4218764 -10.90625,16.140625 C-11.2812519,15.8593736 -11.8085904,15.6835941 -12.4882812,15.6132812 L-12.5058594,13.46875 C-11.9902318,13.4218748 -11.5507831,13.2900401 -11.1875,13.0732422 C-10.8242169,12.8564442 -10.5312511,12.5722674 -10.3085938,12.2207031 C-10.0859364,11.8691389 -9.92187553,11.4501977 -9.81640625,10.9638672 C-9.71093697,10.4775366 -9.65820312,9.94140918 -9.65820312,9.35546875 C-9.68164074,8.61718381 -9.69335938,7.87598028 -9.69335938,7.13183594 C-9.69335938,6.38769159 -9.70507801,5.64648807 -9.72851562,4.90820312 C-9.72851562,4.0527301 -9.62890725,3.29101896 -9.4296875,2.62304688 C-9.23046775,1.95507479 -8.90820535,1.38965075 -8.46289062,0.926757812 C-8.0175759,0.463864873 -7.43164426,0.10937623 -6.70507812,-0.13671875 C-5.97851199,-0.38281373 -5.09375521,-0.505859375 -4.05078125,-0.505859375 L-4.05078125,1.70898438 C-4.50781479,1.72070318 -4.90917796,1.77636669 -5.25488281,1.87597656 C-5.60058767,1.97558644 -5.88769417,2.13964729 -6.11621094,2.36816406 C-6.34472771,2.59668083 -6.51757754,2.89550597 -6.63476562,3.26464844 C-6.75195371,3.63379091 -6.81054688,4.09960656 -6.81054688,4.66210938 L-6.828125,9.7421875 C-6.828125,10.4335972 -6.91015543,11.0458958 -7.07421875,11.5791016 C-7.23828207,12.1123074 -7.44042849,12.5751933 -7.68066406,12.9677734 C-7.92089964,13.3603535 -8.18456888,13.6855456 -8.47167969,13.9433594 C-8.7587905,14.2011732 -9.03124871,14.4003899 -9.2890625,14.5410156 C-8.78515373,14.7753918 -8.37793124,15.0771466 -8.06738281,15.4462891 C-7.75683438,15.8154315 -7.51367275,16.2197244 -7.33789062,16.6591797 C-7.1621085,17.098635 -7.04199251,17.5468727 -6.97753906,18.0039062 C-6.91308562,18.4609398 -6.88085938,18.8886699 -6.88085938,19.2871094 C-6.88085938,19.861331 -6.88671869,20.4941372 -6.8984375,21.1855469 C-6.91015631,21.8769566 -6.91601562,22.5214814 -6.91601562,23.1191406 C-6.91601562,23.9394572 -6.86914109,24.6220676 -6.77539062,25.1669922 C-6.68164016,25.7119168 -6.52636827,26.1455062 -6.30957031,26.4677734 C-6.09277235,26.7900407 -5.79980653,27.0156244 -5.43066406,27.1445312 C-5.06152159,27.2734381 -4.60156525,27.3378906 -4.05078125,27.3378906 L-4.05078125,29.5527344 Z"></path>
        <path d="M57.7890625,87.7218748 C57.7890625,84.4406084 58.1640588,81.5226688 58.9140625,78.9679685 C59.6640662,76.4132683 60.8476482,74.2453212 62.4648438,72.4640623 C64.0820393,70.6828034 66.167956,69.323442 68.7226562,68.3859373 C71.2773565,67.4484326 74.3827942,66.9796873 78.0390625,66.9796873 L77.828125,73.4484373 C75.624989,73.5421878 73.7851636,73.7296859 72.3085938,74.0109373 C70.8320239,74.2921887 69.6367233,74.889839 68.7226562,75.803906 C67.8085892,76.7179731 67.1523457,78.0538973 66.7539062,79.8117185 C66.3554668,81.5695398 66.15625,83.9718596 66.15625,87.0187498 L66.15625,108.253125 C66.15625,111.675017 65.710942,114.592956 64.8203125,117.007031 C63.929683,119.421106 62.8515688,121.413273 61.5859375,122.983594 C60.3203062,124.553914 58.984382,125.749214 57.578125,126.569531 C56.171868,127.389848 54.9531302,127.893749 53.921875,128.08125 C56.125011,128.831254 57.9882736,129.885931 59.5117188,131.245312 C61.0351639,132.604694 62.2773389,134.151554 63.2382812,135.885937 C64.1992236,137.620321 64.9023415,139.495302 65.3476562,141.510937 C65.792971,143.526572 66.015625,145.542177 66.015625,147.557812 L66.0859375,171.675 C66.0859375,171.76875 66.0742189,171.862499 66.0507812,171.95625 C66.0273436,172.05 66.015625,172.143749 66.015625,172.2375 C66.015625,175.893768 66.9765529,178.53046 68.8984375,180.147656 C70.8203221,181.764852 73.8437294,182.573437 77.96875,182.573437 L77.8984375,188.971875 C75.0859234,188.971875 72.4375124,188.655472 69.953125,188.022656 C67.4687376,187.38984 65.3125091,186.346882 63.484375,184.89375 C61.6562409,183.440618 60.2031304,181.553918 59.125,179.233594 C58.0468696,176.913269 57.5078125,174.065642 57.5078125,170.690625 L57.7890625,151.495312 C57.7890625,149.104675 57.6835948,146.784386 57.4726562,144.534375 C57.2617177,142.284364 56.7578165,140.245321 55.9609375,138.417187 C55.1640585,136.589053 53.9921952,135.065631 52.4453125,133.846875 C50.8984298,132.628119 48.7890759,131.831252 46.1171875,131.45625 L46.1875,124.635937 C50.5000216,124.260935 53.5468661,122.807825 55.328125,120.276562 C57.1093839,117.7453 57.9765627,113.9719 57.9296875,108.95625 L57.7890625,87.7218748 Z M130.84375,73.4484373 L130.914062,66.9796873 C134.007828,67.2140635 136.808581,67.7296833 139.316406,68.5265623 C141.824231,69.3234413 143.957022,70.4718673 145.714844,71.9718748 C147.472665,73.4718823 148.832026,75.3351449 149.792969,77.5617185 C150.753911,79.7882922 151.234375,82.4249846 151.234375,85.4718748 L151.023438,106.425 C151.023438,108.721886 151.164061,110.901552 151.445312,112.964062 C151.726564,115.026573 152.27734,116.878117 153.097656,118.51875 C153.917973,120.159383 155.089836,121.507026 156.613281,122.561719 C158.136726,123.616411 160.16405,124.260936 162.695312,124.495312 L162.554688,131.315625 C160.304676,131.503126 158.429695,132.030464 156.929688,132.897656 C155.42968,133.764848 154.222661,134.960148 153.308594,136.483594 C152.394527,138.007039 151.750002,139.823427 151.375,141.932812 C150.999998,144.042198 150.8125,146.432799 150.8125,149.104687 L150.742188,170.55 C150.742188,173.221888 150.367191,175.635927 149.617188,177.792187 C148.867184,179.948448 147.859381,181.799992 146.59375,183.346875 C145.328119,184.893758 143.839852,186.124214 142.128906,187.038281 C140.41796,187.952348 138.578135,188.503124 136.609375,188.690625 C135.484369,188.784375 134.45313,188.866406 133.515625,188.936719 C132.57812,189.007031 131.710941,189.01875 130.914062,188.971875 L130.984375,182.573437 C133.281261,182.573437 135.203117,182.385939 136.75,182.010937 C138.296883,181.635935 139.527339,180.780475 140.441406,179.444531 C141.355473,178.108587 141.999998,176.186731 142.375,173.678906 C142.750002,171.171081 142.9375,167.760959 142.9375,163.448437 C142.9375,160.823424 142.878907,158.163295 142.761719,155.467969 C142.644531,152.772643 142.585938,150.159387 142.585938,147.628125 C142.585938,144.253108 143.031246,141.358606 143.921875,138.944531 C144.812504,136.530456 145.890619,134.538289 147.15625,132.967969 C148.421881,131.397648 149.72265,130.214066 151.058594,129.417187 C152.394538,128.620308 153.531245,128.175 154.46875,128.08125 C151.937487,127.19062 149.921883,125.99532 148.421875,124.495312 C146.921867,122.995305 145.761723,121.342978 144.941406,119.538281 C144.12109,117.733585 143.582033,115.858603 143.324219,113.913281 C143.066405,111.967959 142.9375,110.104696 142.9375,108.323437 L142.867188,86.3156248 C142.867188,84.3937402 142.679689,82.6593825 142.304688,81.1124998 C141.929686,79.5656171 141.273442,78.2414116 140.335938,77.1398435 C139.398433,76.0382755 138.156258,75.1710967 136.609375,74.538281 C135.062492,73.9054654 133.140636,73.5421878 130.84375,73.4484373 L130.84375,73.4484373 Z" id="path-7"></path>
    </defs>
    <g id="Page-1" stroke="none" stroke-width="1" fill="none" fill-rule="evenodd" sketch:type="MSPage">
        <g id="code-park-bird" sketch:type="MSArtboardGroup">
            <g id="{-+-}-+-{code-park}" sketch:type="MSLayerGroup" transform="translate(45.000000, 218.000000)">
                <mask id="mask-2" sketch:name="code park" fill="white">
                    <use xlink:href="#path-1"></use>
                </mask>
                <use id="code-park" fill="#80B1EA" sketch:type="MSShapeGroup" xlink:href="#path-1"></use>
                <mask id="mask-4" sketch:name="}" fill="white">
                    <use xlink:href="#path-3"></use>
                </mask>
                <use id="}" fill="#4990E2" sketch:type="MSShapeGroup" xlink:href="#path-3"></use>
                <mask id="mask-6" sketch:name="{" fill="white">
                    <use xlink:href="#path-5"></use>
                </mask>
                <use id="{" fill="#4990E2" sketch:type="MSShapeGroup" xlink:href="#path-5"></use>
            </g>
            <g id="bird" sketch:type="MSLayerGroup" transform="translate(24.000000, -6.000000)">
                <path d="M77.1860629,67.0882145 C74.2685362,67.3309625 65.8601737,69.1838072 56.8124994,74.5449219 C40.1059525,84.4442297 17.8587236,93.8644189 12.5976565,106.445313 C3.08873583,129.184182 0.283212867,175.587891 0.283203133,187.060547 C0.283198713,192.269531 3.90192589,200.784937 6.06054739,202.546875 C10.531413,206.196142 9.49218964,161.746094 25.4511721,144.878906 C35.8840135,133.852345 34.8515625,134.262875 45.8320313,131.917969 C56.8125,129.573063 56.8125,132.917969 61.2041016,132.917969 C66.939234,132.917969 74.7309891,133.37378 79.4234451,127.573065 C80.168274,132.048661 80.4846554,145.649126 83.8085874,159.123048 C87.6331929,174.626506 96.9003919,190.054689 96.9003919,190.054689 L92.7753919,222.757814 L104.5,222.757814 L115.775653,222.737501 L111.650653,190.034376 C111.650653,190.034376 120.917852,174.606193 124.742458,159.102736 C128.06639,145.628813 128.382771,132.028348 129.1276,127.552752 C133.820056,133.353467 141.611811,132.897656 147.346944,132.897656 C151.738545,132.897656 151.738545,129.55275 162.719014,131.897656 C173.699483,134.242562 172.667032,133.832033 183.099873,144.858594 C199.058855,161.725781 198.019632,206.175829 202.490498,202.526562 C204.649119,200.764625 208.267846,192.249219 208.267842,187.040234 C208.267832,175.567578 205.462309,129.163869 195.953389,106.425 C190.692321,93.8441062 168.445093,84.423917 151.738546,74.5246092 C142.690871,69.1634945 134.282509,67.3106498 131.364982,67.0679018 C131.029555,67.0350477 104.051045,67.0034618 104.051045,67.0034618 C100.531236,67.0286108 77.4958503,67.0578718 77.1860629,67.0882145 Z" id="{-}-4" fill="#4A90E2" sketch:type="MSShapeGroup"></path>
                <path d="M77.1860629,67.0882145 C74.2685362,67.3309625 65.8601737,69.1838072 56.8124994,74.5449219 C40.1059525,84.4442297 17.8587236,93.8644189 12.5976565,106.445312 C3.08873583,129.184182 0.283212867,174.587891 0.283203133,186.060547 C0.283198713,191.269531 3.90192589,199.784937 6.06054739,201.546875 C10.531413,205.196142 9.49218964,153.746094 25.4511721,136.878906 C35.8840135,125.852345 34.8515625,126.262875 45.8320313,123.917969 C56.8125,121.573063 56.8125,124.917969 61.2041016,124.917969 C66.939234,124.917969 74.7309891,125.37378 79.4234451,119.573065 C80.168274,124.048661 80.4846554,137.649126 83.8085874,151.123048 C87.6331929,166.626506 96.9003919,182.054689 96.9003919,182.054689 L96.9003906,222.181639 L104.5,214.757814 L111.65065,222.181639 L111.650653,182.034376 C111.650653,182.034376 120.917852,166.606193 124.742458,151.102736 C128.06639,137.628813 128.382771,124.028348 129.1276,119.552752 C133.820056,125.353467 141.611811,124.897656 147.346944,124.897656 C151.738545,124.897656 151.738545,121.55275 162.719014,123.897656 C173.699483,126.242562 172.667032,125.832033 183.099873,136.858594 C199.058855,153.725781 198.019632,205.175829 202.490498,201.526562 C204.649119,199.764625 208.267846,191.249219 208.267842,186.040234 C208.267832,174.567578 205.462309,129.163869 195.953389,106.425 C190.692321,93.8441062 168.445093,84.423917 151.738546,74.5246092 C142.690871,69.1634945 134.282509,67.3106498 131.364982,67.0679018 C131.029555,67.0350477 104.051045,67.0034618 104.051045,67.0034618 C100.531236,67.0286108 77.4958503,67.0578718 77.1860629,67.0882145 Z" id="{-}-5" fill="#447DC0" sketch:type="MSShapeGroup"></path>
                <mask id="mask-8" sketch:name="{ } 2" fill="white">
                    <use xlink:href="#path-7"></use>
                </mask>
                <use id="{-}-2" fill="#4D8FDC" sketch:type="MSShapeGroup" xlink:href="#path-7"></use>
                <path d="M116.628328,67.8195229 C112.047609,72.210305 105.83149,74.9083185 98.9852164,74.9083185 C84.9019552,74.9083185 73.4852164,63.4915797 73.4852164,49.4083185 C73.4852164,42.7481308 82.7493403,32.4466417 82.7493403,26.594569 C82.7493403,14.6853985 78.0490863,12.6433988 78.0490863,12.6433988 C78.0490863,12.6433988 92.2764399,14.822742 102.418413,20.3513687 C119.469204,29.6461533 124.485216,35.3250574 124.485216,49.4083185 C124.485216,52.5273051 123.925249,55.5155042 122.900364,58.2778666 L133.548294,69.1345012 L116.628328,67.8195229 Z" id="head" fill="#447DC0" sketch:type="MSShapeGroup" transform="translate(104.985216, 44.408319) rotate(-42.000000) translate(-104.985216, -44.408319) "></path>
            </g>
        </g>
    </g>
</svg>