<?xml version="1.0" encoding="UTF-8" standalone="no"?>
<svg width="255px" height="277px" viewBox="0 0 255 277" version="1.1" xmlns="http://www.w3.org/2000/svg" xmlns:xlink="http://www.w3.org/1999/xlink" xmlns:sketch="http://www.bohemiancoding.com/sketch/ns">
    <!-- Generator: Sketch 3.0.3 (7891) - http://www.bohemiancoding.com/sketch -->
    <title>code-park-turtle</title>
    <desc>Created with Sketch.</desc>
    <defs>
        <path d="M13.4863281,11.9199219 C12.9238253,11.2167934 12.2382853,10.7011735 11.4296875,10.3730469 C10.6210897,10.0449202 9.7597702,9.88085938 8.84570312,9.88085938 C7.87304201,9.88085938 7.00586318,10.0683575 6.24414062,10.4433594 C5.48241807,10.8183612 4.8349636,11.3310514 4.30175781,11.9814453 C3.76855202,12.6318392 3.36132953,13.3935503 3.08007812,14.2666016 C2.79882672,15.1396528 2.65820312,16.0742138 2.65820312,17.0703125 C2.65820312,18.0546924 2.78124877,18.9746051 3.02734375,19.8300781 C3.27343873,20.6855512 3.64843498,21.4296843 4.15234375,22.0625 C4.65625252,22.6953157 5.29491801,23.1904279 6.06835938,23.5478516 C6.84180074,23.9052752 7.7558541,24.0839844 8.81054688,24.0839844 C10.7910255,24.0839844 12.5663984,23.4043037 14.1367188,22.0449219 L14.9453125,24.4707031 C14.0898395,25.150394 13.1347709,25.6425766 12.0800781,25.9472656 C11.0253854,26.2519546 9.85938139,26.4042969 8.58203125,26.4042969 C7.09374256,26.4042969 5.79004466,26.1611352 4.67089844,25.6748047 C3.55175222,25.1884741 2.61719125,24.5263714 1.8671875,23.6884766 C1.11718375,22.8505817 0.554689375,21.8691463 0.1796875,20.7441406 C-0.195314375,19.619135 -0.3828125,18.4238345 -0.3828125,17.1582031 C-0.3828125,15.8456966 -0.183595742,14.6035215 0.21484375,13.4316406 C0.613283242,12.2597598 1.19335557,11.2373091 1.95507812,10.3642578 C2.71680068,9.49120657 3.65429131,8.79980724 4.76757812,8.29003906 C5.88086494,7.78027089 7.1523366,7.52539062 8.58203125,7.52539062 C10.0000071,7.52539062 11.2421822,7.74804465 12.3085938,8.19335938 C13.3750053,8.6386741 14.2070283,9.25390232 14.8046875,10.0390625 L13.4863281,11.9199219 Z M27.2851562,7.52539062 C28.7968826,7.52539062 30.1240177,7.77148191 31.2666016,8.26367188 C32.4091854,8.75586184 33.3613243,9.42968322 34.1230469,10.2851562 C34.8847694,11.1406293 35.4589824,12.1425724 35.8457031,13.2910156 C36.2324238,14.4394589 36.4257812,15.6699153 36.4257812,16.9824219 C36.4257812,18.2480532 36.2236348,19.4521427 35.8193359,20.5947266 C35.415037,21.7373104 34.8232461,22.7392535 34.0439453,23.6005859 C33.2646445,24.4619184 32.300787,25.1445287 31.1523438,25.6484375 C30.0039005,26.1523463 28.6914136,26.4042969 27.2148438,26.4042969 C25.7148362,26.4042969 24.3906307,26.1582056 23.2421875,25.6660156 C22.0937443,25.1738257 21.1298867,24.5058636 20.3505859,23.6621094 C19.5712852,22.8183552 18.9794942,21.825201 18.5751953,20.6826172 C18.1708964,19.5400333 17.96875,18.3183659 17.96875,17.0175781 C17.96875,15.7167904 18.1738261,14.4892636 18.5839844,13.3349609 C18.9941427,12.1806583 19.5947226,11.1728559 20.3857422,10.3115234 C21.1767618,9.45019101 22.1494083,8.7705103 23.3037109,8.27246094 C24.4580136,7.77441157 25.7851488,7.52539062 27.2851562,7.52539062 Z M33.3671875,17.0175781 C33.3671875,16.0566358 33.2441419,15.1425825 32.9980469,14.2753906 C32.7519519,13.4081988 32.3769556,12.6494173 31.8730469,11.9990234 C31.3691381,11.3486296 30.7304726,10.8330097 29.9570313,10.4521484 C29.1835899,10.0712872 28.2695365,9.88085938 27.2148438,9.88085938 C26.1953074,9.88085938 25.298832,10.0771465 24.5253906,10.4697266 C23.7519493,10.8623067 23.1044948,11.3896451 22.5830078,12.0517578 C22.0615208,12.7138705 21.6689466,13.4785113 21.4052734,14.3457031 C21.1416002,15.212895 21.0097656,16.1152297 21.0097656,17.0527344 C21.0097656,17.9902391 21.1416002,18.8808552 21.4052734,19.7246094 C21.6689466,20.5683636 22.0615208,21.3154264 22.5830078,21.9658203 C23.1044948,22.6162142 23.7578086,23.131834 24.5429688,23.5126953 C25.3281289,23.8935566 26.2421823,24.0839844 27.2851563,24.0839844 C28.3164114,24.0839844 29.2128868,23.8906269 29.9746094,23.5039062 C30.7363319,23.1171856 31.3691381,22.5986361 31.8730469,21.9482422 C32.3769556,21.2978483 32.7519519,20.5478558 32.9980469,19.6982422 C33.2441419,18.8486286 33.3671875,17.9550828 33.3671875,17.0175781 Z M54.2324219,26 L54.1621094,23.4160156 C53.4003868,24.494146 52.5185597,25.2617165 51.5166016,25.71875 C50.5146434,26.1757835 49.3222725,26.4042969 47.9394531,26.4042969 C46.5449149,26.4042969 45.3349661,26.1611352 44.3095703,25.6748047 C43.2841746,25.1884741 42.4375033,24.5234417 41.7695312,23.6796875 C41.1015592,22.8359333 40.6035173,21.8486385 40.2753906,20.7177734 C39.947264,19.5869084 39.7832031,18.3828189 39.7832031,17.1054688 C39.7832031,15.8398374 39.956053,14.6298886 40.3017578,13.4755859 C40.6474627,12.3212833 41.1689418,11.3017622 41.8662109,10.4169922 C42.56348,9.53222214 43.4306589,8.82910417 44.4677734,8.30761719 C45.504888,7.78613021 46.7089775,7.52539062 48.0800781,7.52539062 C49.3808659,7.52539062 50.5497995,7.77148191 51.5869141,8.26367188 C52.6240286,8.75586184 53.4824185,9.46483912 54.1621094,10.390625 L54.1621094,-0.2265625 L57.0625,-0.2265625 L57.0625,21.5 C57.0742188,22.2031285 57.0888671,22.9589803 57.1064453,23.7675781 C57.1240235,24.5761759 57.1445311,25.3203091 57.1679688,26 L54.2324219,26 Z M48.3964844,24.0839844 C49.3457079,24.0839844 50.1806605,23.8994159 50.9013672,23.5302734 C51.6220739,23.161131 52.2255835,22.6396518 52.7119141,21.9658203 C53.1982446,21.2919888 53.5644519,20.4804735 53.8105469,19.53125 C54.0566419,18.5820265 54.1796875,17.5273496 54.1796875,16.3671875 C54.1796875,15.3945264 54.0478529,14.5097696 53.7841797,13.7128906 C53.5205065,12.9160116 53.1425806,12.2334013 52.6503906,11.6650391 C52.1582007,11.0966768 51.5664097,10.6572281 50.875,10.3466797 C50.1835903,10.0361313 49.4101605,9.88085938 48.5546875,9.88085938 C47.5585888,9.88085938 46.7001989,10.0742168 45.9794922,10.4609375 C45.2587855,10.8476582 44.6640648,11.3691373 44.1953125,12.0253906 C43.7265602,12.6816439 43.3808605,13.4462847 43.1582031,14.3193359 C42.9355458,15.1923872 42.8242188,16.1152295 42.8242188,17.0878906 C42.8242188,18.0019577 42.9208975,18.8808552 43.1142578,19.7246094 C43.3076182,20.5683636 43.6240212,21.3124968 44.0634766,21.9570312 C44.5029319,22.6015657 45.0771449,23.1171856 45.7861328,23.5039062 C46.4951207,23.8906269 47.3652292,24.0839844 48.3964844,24.0839844 Z M78.2089844,23.9785156 C77.2363233,24.8222698 76.158209,25.4374981 74.9746094,25.8242188 C73.7910097,26.2109394 72.4492262,26.4042969 70.9492188,26.4042969 C69.5312429,26.4042969 68.2656306,26.1728539 67.1523438,25.7099609 C66.0390569,25.247068 65.0986367,24.6025432 64.3310547,23.7763672 C63.5634727,22.9501912 62.9775411,21.9628964 62.5732422,20.8144531 C62.1689433,19.6660099 61.9667969,18.4062569 61.9667969,17.0351562 C61.9667969,15.7343685 62.1660136,14.5097714 62.5644531,13.3613281 C62.9628926,12.2128849 63.5429649,11.2050825 64.3046875,10.3378906 C65.0664101,9.47069879 65.9951117,8.78515877 67.0908203,8.28125 C68.1865289,7.77734123 69.437493,7.52539062 70.84375,7.52539062 C72.2265694,7.52539062 73.4277293,7.75097431 74.4472656,8.20214844 C75.466802,8.65332257 76.3046842,9.27441011 76.9609375,10.0654297 C77.6171908,10.8564493 78.1064437,11.7968696 78.4287109,12.8867188 C78.7509782,13.9765679 78.9121094,15.1601499 78.9121094,16.4375 C78.9121094,16.5664069 78.9091797,16.7158195 78.9033203,16.8857422 C78.8974609,17.0556649 78.8886719,17.2109368 78.8769531,17.3515625 L65.0429688,17.3515625 L65.0957031,18.1425781 C65.166016,19.0214888 65.3447251,19.8242151 65.6318359,20.5507812 C65.9189467,21.2773474 66.3144506,21.9042942 66.8183594,22.4316406 C67.3222681,22.958987 67.9345667,23.3662095 68.6552734,23.6533203 C69.3759802,23.9404311 70.1992141,24.0839844 71.125,24.0839844 C72.3671937,24.0839844 73.5039011,23.8671897 74.5351562,23.4335938 C75.5664114,22.9999978 76.4921834,22.3789103 77.3125,21.5703125 L78.2089844,23.9785156 Z M75.8710938,15.2949219 L75.8535156,15.0488281 C75.7949216,14.2871056 75.645509,13.5898469 75.4052734,12.9570312 C75.1650379,12.3242156 74.8339865,11.7792992 74.4121094,11.3222656 C73.9902323,10.8652321 73.4775421,10.5107434 72.8740234,10.2587891 C72.2705048,10.0068347 71.5878944,9.88085938 70.8261719,9.88085938 C70.0058553,9.88085938 69.2675814,10.0244126 68.6113281,10.3115234 C67.9550748,10.5986342 67.3896508,10.9882788 66.9150391,11.4804688 C66.4404273,11.9726587 66.0566421,12.5468717 65.7636719,13.203125 C65.4707017,13.8593783 65.2714849,14.5566369 65.1660156,15.2949219 L75.8710938,15.2949219 Z M96.7714844,33.5058594 L93.8886719,33.5058594 L93.8886719,12.6757812 C93.8886719,12.4296863 93.8857422,12.1279315 93.8798828,11.7705078 C93.8740234,11.4130842 93.8652344,11.0234396 93.8535156,10.6015625 C93.8417968,10.1796854 93.8271485,9.74316632 93.8095703,9.29199219 C93.7919921,8.84081806 93.7714845,8.39843967 93.7480469,7.96484375 L96.6835938,7.96484375 L96.7714844,10.53125 C97.5097693,9.53515127 98.3974558,8.78515877 99.4345703,8.28125 C100.471685,7.77734123 101.605463,7.52539062 102.835938,7.52539062 C104.253913,7.52539062 105.48144,7.77148191 106.518555,8.26367188 C107.555669,8.75586184 108.414059,9.42089425 109.09375,10.2587891 C109.773441,11.0966839 110.280272,12.0722601 110.614258,13.1855469 C110.948244,14.2988337 111.115234,15.4824156 111.115234,16.7363281 C111.115234,18.0019595 110.942385,19.2177676 110.59668,20.3837891 C110.250975,21.5498105 109.735355,22.5781205 109.049805,23.46875 C108.364254,24.3593795 107.502935,25.0712864 106.46582,25.6044922 C105.428706,26.137698 104.218757,26.4042969 102.835938,26.4042969 C100.304675,26.4042969 98.2832107,25.4785249 96.7714844,23.6269531 L96.7714844,33.5058594 Z M96.7714844,17.3164062 C96.7714844,18.2890674 96.89453,19.1884724 97.140625,20.0146484 C97.38672,20.8408244 97.7470679,21.555661 98.2216797,22.1591797 C98.6962914,22.7626983 99.2851527,23.2343733 99.9882812,23.5742188 C100.69141,23.9140642 101.499995,24.0839844 102.414062,24.0839844 C103.398442,24.0839844 104.245114,23.8847676 104.954102,23.4863281 C105.663089,23.0878886 106.243162,22.5546908 106.694336,21.8867188 C107.14551,21.2187467 107.479491,20.4482466 107.696289,19.5751953 C107.913087,18.7021441 108.021484,17.7910204 108.021484,16.8417969 C108.021484,15.9511674 107.927735,15.0869183 107.740234,14.2490234 C107.552733,13.4111286 107.245119,12.6669954 106.817383,12.0166016 C106.389646,11.3662077 105.824222,10.8476582 105.121094,10.4609375 C104.417965,10.0742168 103.550786,9.88085938 102.519531,9.88085938 C101.441401,9.88085938 100.536136,10.0859354 99.8037109,10.4960938 C99.0712854,10.9062521 98.4794944,11.4540981 98.0283203,12.1396484 C97.5771462,12.8251987 97.2548838,13.6162065 97.0615234,14.5126953 C96.8681631,15.4091842 96.7714844,16.3437451 96.7714844,17.3164062 Z M122.628906,7.52539062 C123.367191,7.52539062 124.041013,7.59277276 124.650391,7.72753906 C125.259769,7.86230536 125.822263,8.05273314 126.337891,8.29882812 C126.853518,8.54492311 127.328123,8.84960756 127.761719,9.21289062 C128.195315,9.57617369 128.599607,9.98632584 128.974609,10.4433594 L129.080078,7.96484375 L131.945312,7.96484375 L131.875,12.4121094 L131.875,26 L128.974609,26 L129.009766,23.46875 C128.728514,23.8437519 128.374026,24.2099592 127.946289,24.5673828 C127.518553,24.9248065 127.035159,25.2382799 126.496094,25.5078125 C125.957029,25.7773451 125.362308,25.9941398 124.711914,26.1582031 C124.06152,26.3222664 123.37891,26.4042969 122.664063,26.4042969 C121.656245,26.4042969 120.742192,26.2724623 119.921875,26.0087891 C119.101558,25.7451159 118.369144,25.3818383 117.724609,24.9189453 C117.080075,24.4560524 116.52051,23.9140656 116.045898,23.2929688 C115.571287,22.6718719 115.181642,22.0039098 114.876953,21.2890625 C114.572264,20.5742152 114.343751,19.8330117 114.191406,19.0654297 C114.039062,18.2978477 113.962891,17.5390662 113.962891,16.7890625 C113.962891,15.6289004 114.1416,14.4921931 114.499023,13.3789062 C114.856447,12.2656194 115.395504,11.275395 116.116211,10.4082031 C116.836918,9.54101129 117.739252,8.84375264 118.823242,8.31640625 C119.907232,7.78905986 121.175774,7.52539062 122.628906,7.52539062 Z M122.962891,24.0839844 C123.783207,24.0839844 124.553707,23.9169939 125.274414,23.5830078 C125.995121,23.2490218 126.627927,22.7568392 127.172852,22.1064453 C127.717776,21.4560514 128.151366,20.6474658 128.473633,19.6806641 C128.7959,18.7138624 128.962891,17.5976626 128.974609,16.3320312 C128.974609,15.3828078 128.831056,14.5156289 128.543945,13.7304688 C128.256835,12.9453086 127.849612,12.2656279 127.322266,11.6914062 C126.794919,11.1171846 126.153324,10.6718766 125.397461,10.3554688 C124.641598,10.0390609 123.794927,9.88085938 122.857422,9.88085938 C122.142575,9.88085938 121.49805,9.9775381 120.923828,10.1708984 C120.349607,10.3642588 119.839846,10.6308577 119.394531,10.9707031 C118.949217,11.3105486 118.562502,11.7089821 118.234375,12.1660156 C117.906248,12.6230492 117.63672,13.1123021 117.425781,13.6337891 C117.214843,14.155276 117.059571,14.6972628 116.959961,15.2597656 C116.860351,15.8222684 116.810547,16.3789035 116.810547,16.9296875 C116.810547,17.4687527 116.848632,18.0224581 116.924805,18.5908203 C117.000977,19.1591825 117.126952,19.7070286 117.302734,20.234375 C117.478517,20.7617214 117.718748,21.2597633 118.023438,21.7285156 C118.328127,22.197268 118.706052,22.6044905 119.157227,22.9501953 C119.608401,23.2959002 120.147458,23.571288 120.774414,23.7763672 C121.40137,23.9814463 122.130855,24.0839844 122.962891,24.0839844 Z M140.101562,26 L137.201172,26 L137.201172,12.3066406 C137.201172,11.5683557 137.189453,10.8300818 137.166016,10.0917969 C137.142578,9.35351193 137.119141,8.64453465 137.095703,7.96484375 L139.996094,7.96484375 L140.101562,10.6894531 C140.593752,9.69335439 141.261715,8.91992463 142.105469,8.36914062 C142.949223,7.81835662 143.886714,7.54296875 144.917969,7.54296875 C145.59766,7.54296875 146.230466,7.61328055 146.816406,7.75390625 L146.851562,10.4785156 C146.605468,10.3496087 146.306642,10.2470707 145.955078,10.1708984 C145.603514,10.0947262 145.228518,10.0566406 144.830078,10.0566406 C144.12695,10.0566406 143.482425,10.1943346 142.896484,10.4697266 C142.310544,10.7451186 141.812502,11.1406224 141.402344,11.65625 C140.992185,12.1718776 140.672853,12.7988244 140.444336,13.5371094 C140.215819,14.2753943 140.101562,15.1015579 140.101562,16.015625 L140.101562,26 Z M153.25,-0.2265625 L153.25,15.6816406 L161.441406,7.96484375 L165.396484,7.96484375 L156.080078,16.4726562 C157.73243,18.0546954 159.396476,19.6425702 161.072266,21.2363281 C162.748055,22.8300861 164.412101,24.4179608 166.064453,26 L162.214844,26 L153.25,17.1933594 L153.25,26 L150.349609,26 L150.349609,-0.2265625 L153.25,-0.2265625 Z" id="path-1"></path>
        <path id="path-3" d="M169.160156,27.3378906 C169.71094,27.3378906 170.170897,27.2734381 170.540039,27.1445312 C170.909182,27.0156244 171.202147,26.7900407 171.418945,26.4677734 C171.635743,26.1455062 171.791015,25.7119168 171.884766,25.1669922 C171.978516,24.6220676 172.025391,23.9394572 172.025391,23.1191406 C172.025391,22.5214814 172.019531,21.8769566 172.007812,21.1855469 C171.996094,20.4941372 171.990234,19.861331 171.990234,19.2871094 C171.990234,18.8886699 172.022461,18.4609398 172.086914,18.0039062 C172.151368,17.5468727 172.271483,17.098635 172.447266,16.6591797 C172.623048,16.2197244 172.866209,15.8154315 173.176758,15.4462891 C173.487306,15.0771466 173.894529,14.7753918 174.398438,14.5410156 C174.140624,14.4003899 173.868165,14.2011732 173.581055,13.9433594 C173.293944,13.6855456 173.030275,13.3603535 172.790039,12.9677734 C172.549803,12.5751933 172.347657,12.1123074 172.183594,11.5791016 C172.01953,11.0458958 171.9375,10.4335972 171.9375,9.7421875 L171.919922,4.66210938 C171.919922,4.09960656 171.861329,3.63379091 171.744141,3.26464844 C171.626953,2.89550597 171.454103,2.59668083 171.225586,2.36816406 C170.997069,2.13964729 170.709963,1.97558644 170.364258,1.87597656 C170.018553,1.77636669 169.61719,1.72070318 169.160156,1.70898438 L169.160156,-0.505859375 C170.20313,-0.505859375 171.084957,-0.38281373 171.805664,-0.13671875 C172.526371,0.10937623 173.112302,0.463864873 173.563477,0.926757812 C174.014651,1.38965075 174.339843,1.95507479 174.539062,2.62304688 C174.738282,3.29101896 174.837891,4.0527301 174.837891,4.90820312 C174.814453,5.64648807 174.802734,6.38769159 174.802734,7.13183594 C174.802734,7.87598028 174.791016,8.61718381 174.767578,9.35546875 C174.767578,9.94140918 174.820312,10.4775366 174.925781,10.9638672 C175.031251,11.4501977 175.195311,11.8691389 175.417969,12.2207031 C175.640626,12.5722674 175.933592,12.8564442 176.296875,13.0732422 C176.660158,13.2900401 177.099607,13.4218748 177.615234,13.46875 L177.597656,15.6132812 C176.917965,15.6835941 176.390627,15.8593736 176.015625,16.140625 C175.640623,16.4218764 175.365235,16.7705057 175.189453,17.1865234 C175.013671,17.6025411 174.908203,18.0712865 174.873047,18.5927734 C174.83789,19.1142604 174.820312,19.6445286 174.820312,20.1835938 L174.837891,24.8066406 C174.837891,25.6503948 174.697267,26.3652314 174.416016,26.9511719 C174.134764,27.5371123 173.73926,28.0175762 173.229492,28.3925781 C172.719724,28.76758 172.119144,29.0458975 171.427734,29.2275391 C170.736325,29.4091806 169.980473,29.5175779 169.160156,29.5527344 L169.160156,27.3378906 Z"></path>
        <path id="path-5" d="M-4.05078125,29.5527344 C-4.87109785,29.5175779 -5.62694967,29.4091806 -6.31835938,29.2275391 C-7.00976908,29.0458975 -7.61034901,28.76758 -8.12011719,28.3925781 C-8.62988536,28.0175762 -9.02538922,27.5371123 -9.30664062,26.9511719 C-9.58789203,26.3652314 -9.72851562,25.6503948 -9.72851562,24.8066406 L-9.7109375,20.1835938 C-9.7109375,19.6445286 -9.72851545,19.1142604 -9.76367188,18.5927734 C-9.7988283,18.0712865 -9.904296,17.6025411 -10.0800781,17.1865234 C-10.2558603,16.7705057 -10.5312481,16.4218764 -10.90625,16.140625 C-11.2812519,15.8593736 -11.8085904,15.6835941 -12.4882812,15.6132812 L-12.5058594,13.46875 C-11.9902318,13.4218748 -11.5507831,13.2900401 -11.1875,13.0732422 C-10.8242169,12.8564442 -10.5312511,12.5722674 -10.3085938,12.2207031 C-10.0859364,11.8691389 -9.92187553,11.4501977 -9.81640625,10.9638672 C-9.71093697,10.4775366 -9.65820312,9.94140918 -9.65820312,9.35546875 C-9.68164074,8.61718381 -9.69335938,7.87598028 -9.69335938,7.13183594 C-9.69335938,6.38769159 -9.70507801,5.64648807 -9.72851562,4.90820312 C-9.72851562,4.0527301 -9.62890725,3.29101896 -9.4296875,2.62304688 C-9.23046775,1.95507479 -8.90820535,1.38965075 -8.46289062,0.926757812 C-8.0175759,0.463864873 -7.43164426,0.10937623 -6.70507812,-0.13671875 C-5.97851199,-0.38281373 -5.09375521,-0.505859375 -4.05078125,-0.505859375 L-4.05078125,1.70898438 C-4.50781479,1.72070318 -4.90917796,1.77636669 -5.25488281,1.87597656 C-5.60058767,1.97558644 -5.88769417,2.13964729 -6.11621094,2.36816406 C-6.34472771,2.59668083 -6.51757754,2.89550597 -6.63476562,3.26464844 C-6.75195371,3.63379091 -6.81054688,4.09960656 -6.81054688,4.66210938 L-6.828125,9.7421875 C-6.828125,10.4335972 -6.91015543,11.0458958 -7.07421875,11.5791016 C-7.23828207,12.1123074 -7.44042849,12.5751933 -7.68066406,12.9677734 C-7.92089964,13.3603535 -8.18456888,13.6855456 -8.47167969,13.9433594 C-8.7587905,14.2011732 -9.03124871,14.4003899 -9.2890625,14.5410156 C-8.78515373,14.7753918 -8.37793124,15.0771466 -8.06738281,15.4462891 C-7.75683438,15.8154315 -7.51367275,16.2197244 -7.33789062,16.6591797 C-7.1621085,17.098635 -7.04199251,17.5468727 -6.97753906,18.0039062 C-6.91308562,18.4609398 -6.88085938,18.8886699 -6.88085938,19.2871094 C-6.88085938,19.861331 -6.88671869,20.4941372 -6.8984375,21.1855469 C-6.91015631,21.8769566 -6.91601562,22.5214814 -6.91601562,23.1191406 C-6.91601562,23.9394572 -6.86914109,24.6220676 -6.77539062,25.1669922 C-6.68164016,25.7119168 -6.52636827,26.1455062 -6.30957031,26.4677734 C-6.09277235,26.7900407 -5.79980653,27.0156244 -5.43066406,27.1445312 C-5.06152159,27.2734381 -4.60156525,27.3378906 -4.05078125,27.3378906 L-4.05078125,29.5527344 Z"></path>
        <path id="path-7" d="M40.9203161,33.0431026 L40.921875,33 C37.2656067,33 34.160169,33.4226392 31.6054687,34.2679303 C29.0507685,35.1132214 26.9648518,36.3388752 25.3476562,37.9449283 C23.7304607,39.5509814 22.5468787,41.5056878 21.796875,43.809106 C21.0468713,46.1125243 20.671875,48.7434534 20.671875,51.7019723 L20.8125,70.8477203 C20.8593752,75.3700277 19.9921964,78.7722734 18.2109375,81.0545594 C16.4296786,83.3368454 13.3828341,84.647027 9.0703125,84.9851434 L9,91.1346055 C11.6718884,91.472722 13.7812423,92.1912086 15.328125,93.2900871 C16.8750077,94.3889655 18.046871,95.762543 18.84375,97.4108607 C19.640629,99.0591783 20.1445302,100.897659 20.3554688,102.926358 C20.5664073,104.955056 20.671875,107.04712 20.671875,109.202613 L20.390625,126.509862 C20.390625,129.55291 20.9296821,132.120443 22.0078125,134.212538 C23.0859429,136.304634 24.5390534,138.005757 26.3671875,139.315958 C28.1953216,140.626159 30.3515501,141.566531 32.8359375,142.137103 C34.5142918,142.522559 36.2675035,142.777813 38.0955971,142.902869 C38.4823412,142.96248 38.8580597,142.992956 39.21875,142.992956 L93.796875,142.992956 C94.593754,143.03522 95.4609328,143.024655 96.3984375,142.961258 C97.3359422,142.897861 98.3671819,142.823899 99.4921875,142.73937 C101.460947,142.570312 103.300773,142.073711 105.011719,141.249552 C106.722665,140.425393 108.210931,139.315965 109.476562,137.921235 C110.742194,136.526504 111.749996,134.857079 112.5,132.91291 C113.250004,130.96874 113.625,128.792148 113.625,126.383069 L113.695312,107.047131 C113.695312,104.638051 113.882811,102.482591 114.257812,100.580686 C114.632814,98.6787815 115.277339,97.0410545 116.191406,95.6674565 C117.105473,94.2938584 118.312492,93.2161284 119.8125,92.4342341 C121.312507,91.6523398 123.187489,91.1768707 125.4375,91.0078125 L125.578125,84.8583504 C123.046862,84.6470276 121.019539,84.0658987 119.496094,83.1149462 C117.972649,82.1639937 116.800785,80.948906 115.980469,79.4696465 C115.160152,77.9903871 114.609376,76.3209622 114.328125,74.4613217 C114.046874,72.6016813 113.90625,70.6364089 113.90625,68.5654457 L114.117187,49.6732838 C114.117187,46.9260877 113.636724,44.5487421 112.675781,42.5411757 C111.714839,40.5336093 110.355478,38.8536184 108.597656,37.5011527 C106.839835,36.1486869 104.707044,35.1132208 102.199219,34.3947234 C99.6913937,33.6762259 96.8906405,33.2113228 93.796875,33 L40.9203161,33.0431026 L40.9203161,33.0431026 Z"></path>
    </defs>
    <g id="Page-1" stroke="none" stroke-width="1" fill="none" fill-rule="evenodd" sketch:type="MSPage">
        <g id="code-park-turtle" sketch:type="MSArtboardGroup">
            <g id="{-+-}-+-{code-park}" sketch:type="MSLayerGroup" transform="translate(45.000000, 218.000000)">
                <mask id="mask-2" sketch:name="code park" fill="white">
                    <use xlink:href="#path-1"></use>
                </mask>
                <use id="code-park" fill="#ABD69F" sketch:type="MSShapeGroup" xlink:href="#path-1"></use>
                <mask id="mask-4" sketch:name="}" fill="white">
                    <use xlink:href="#path-3"></use>
                </mask>
                <use id="}" fill="#608E53" sketch:type="MSShapeGroup" xlink:href="#path-3"></use>
                <mask id="mask-6" sketch:name="{" fill="white">
                    <use xlink:href="#path-5"></use>
                </mask>
                <use id="{" fill="#608E53" sketch:type="MSShapeGroup" xlink:href="#path-5"></use>
            </g>
            <g id="turtle" sketch:type="MSLayerGroup" transform="translate(61.000000, 34.000000)">
                <path d="M22,36.6688521 C15.7984273,31.8745006 9.24038167,30.3037742 6.27207794,33.2720779 C2.75735931,36.7867966 5.60660172,45.3345238 12.636039,52.363961 C15.6503659,55.378288 18.9438792,57.6239516 22,58.9287591 L22,36.6688521 Z" id="leg" fill="#ABD69F" sketch:type="MSShapeGroup"></path>
                <path d="M22,120.668852 C15.7984273,115.874501 9.24038167,114.303774 6.27207794,117.272078 C2.75735931,120.786797 5.60660172,129.334524 12.636039,136.363961 C15.6503659,139.378288 18.9438792,141.623952 22,142.928759 L22,120.668852 Z" id="leg" fill="#ABD69F" sketch:type="MSShapeGroup" transform="translate(23.000000, 130.000000) scale(1, -1) translate(-23.000000, -130.000000) "></path>
                <path d="M109,36.6688521 C102.798427,31.8745006 96.2403817,30.3037742 93.2720779,33.2720779 C89.7573593,36.7867966 92.6066017,45.3345238 99.636039,52.363961 C102.650366,55.378288 105.943879,57.6239516 109,58.9287591 L109,36.6688521 Z" id="leg" fill="#ABD69F" sketch:type="MSShapeGroup" transform="translate(110.000000, 46.000000) scale(-1, 1) translate(-110.000000, -46.000000) "></path>
                <path d="M109,120.668852 C102.798427,115.874501 96.2403817,114.303774 93.2720779,117.272078 C89.7573593,120.786797 92.6066017,129.334524 99.636039,136.363961 C102.650366,139.378288 105.943879,141.623952 109,142.928759 L109,120.668852 Z" id="leg" fill="#ABD69F" sketch:type="MSShapeGroup" transform="translate(110.000000, 130.000000) scale(-1, -1) translate(-110.000000, -130.000000) "></path>
                <mask id="mask-8" sketch:name="{ } 2" fill="white">
                    <use xlink:href="#path-7"></use>
                </mask>
                <use id="{-}-2" fill="#75A567" sketch:type="MSShapeGroup" xlink:href="#path-7"></use>
                <polygon id="Polygon-1" stroke="#ABD69F" sketch:type="MSShapeGroup" mask="url(#mask-8)" points="38 22 52.7224319 30.5 52.7224319 47.5 38 56 23.2775681 47.5 23.2775681 30.5 "></polygon>
                <polygon id="Polygon-2" stroke="#ABD69F" sketch:type="MSShapeGroup" mask="url(#mask-8)" points="67.3000031 22 82.0224349 30.5 82.0224349 47.5 67.3000031 56 52.5775712 47.5 52.5775712 30.5 "></polygon>
                <polygon id="Polygon-3" stroke="#ABD69F" sketch:type="MSShapeGroup" mask="url(#mask-8)" points="96.5 22 111.222432 30.5 111.222432 47.5 96.5 56 81.7775681 47.5 81.7775681 30.5 "></polygon>
                <polygon id="Polygon-4" stroke="#ABD69F" sketch:type="MSShapeGroup" mask="url(#mask-8)" points="24 47.5 38.7224319 56 38.7224319 73 24 81.5 9.27756814 73 9.27756814 56 "></polygon>
                <polygon id="Polygon-1" stroke="#ABD69F" sketch:type="MSShapeGroup" mask="url(#mask-8)" points="53 47.5 67.7224319 56 67.7224319 73 53 81.5 38.2775681 73 38.2775681 56 "></polygon>
                <polygon id="Polygon-2" stroke="#ABD69F" sketch:type="MSShapeGroup" mask="url(#mask-8)" points="82 47.5 96.7224319 56 96.7224319 73 82 81.5 67.2775681 73 67.2775681 56 "></polygon>
                <polygon id="Polygon-3" stroke="#ABD69F" sketch:type="MSShapeGroup" mask="url(#mask-8)" points="111 47.5 125.722432 56 125.722432 73 111 81.5 96.2775681 73 96.2775681 56 "></polygon>
                <polygon id="Polygon-1" stroke="#ABD69F" sketch:type="MSShapeGroup" mask="url(#mask-8)" points="38.5 73 53.2224319 81.5 53.2224319 98.5 38.5 107 23.7775681 98.5 23.7775681 81.5 "></polygon>
                <polygon id="Polygon-2" stroke="#ABD69F" sketch:type="MSShapeGroup" mask="url(#mask-8)" points="67.5 73 82.2224319 81.5 82.2224319 98.5 67.5 107 52.7775681 98.5 52.7775681 81.5 "></polygon>
                <polygon id="Polygon-3" stroke="#ABD69F" sketch:type="MSShapeGroup" mask="url(#mask-8)" points="96.5 73 111.222432 81.5 111.222432 98.5 96.5 107 81.7775681 98.5 81.7775681 81.5 "></polygon>
                <polygon id="Polygon-4" stroke="#ABD69F" sketch:type="MSShapeGroup" mask="url(#mask-8)" points="24 98.5 38.7224319 107 38.7224319 124 24 132.5 9.27756814 124 9.27756814 107 "></polygon>
                <polygon id="Polygon-1" stroke="#ABD69F" sketch:type="MSShapeGroup" mask="url(#mask-8)" points="53 98.5 67.7224319 107 67.7224319 124 53 132.5 38.2775681 124 38.2775681 107 "></polygon>
                <polygon id="Polygon-2" stroke="#ABD69F" sketch:type="MSShapeGroup" mask="url(#mask-8)" points="82 98.5 96.7224319 107 96.7224319 124 82 132.5 67.2775681 124 67.2775681 107 "></polygon>
                <polygon id="Polygon-3" stroke="#ABD69F" sketch:type="MSShapeGroup" mask="url(#mask-8)" points="111 98.5 125.722432 107 125.722432 124 111 132.5 96.2775681 124 96.2775681 107 "></polygon>
                <polygon id="Polygon-1" stroke="#ABD69F" sketch:type="MSShapeGroup" mask="url(#mask-8)" points="38.5 124 53.2224319 132.5 53.2224319 149.5 38.5 158 23.7775681 149.5 23.7775681 132.5 "></polygon>
                <polygon id="Polygon-2" stroke="#ABD69F" sketch:type="MSShapeGroup" mask="url(#mask-8)" points="67.5 124 82.2224319 132.5 82.2224319 149.5 67.5 158 52.7775681 149.5 52.7775681 132.5 "></polygon>
                <polygon id="Polygon-3" stroke="#ABD69F" sketch:type="MSShapeGroup" mask="url(#mask-8)" points="96.5 124 111.222432 132.5 111.222432 149.5 96.5 158 81.7775681 149.5 81.7775681 132.5 "></polygon>
                <path d="M69.947141,143 C69.9820909,143.493096 70,143.993515 70,144.5 C70,152.508129 65.5228475,159 60,159 C59.2057396,159 58.4331067,158.865733 57.6923077,158.611998 C61.8821,157.101402 65,151.356451 65,144.5 C65,143.993515 64.9829864,143.493096 64.9497839,143 L69.947141,143 L69.947141,143 Z" id="tail" fill="#ABD69F" sketch:type="MSShapeGroup"></path>
                <path d="M20.171875,47.7421875 C20.171875,44.4609211 20.5468713,41.5429815 21.296875,38.9882812 C22.0468787,36.433581 23.2304607,34.2656339 24.8476562,32.484375 C26.4648518,30.7031161 28.5507685,29.3437547 31.1054687,28.40625 C33.660169,27.4687453 36.7656067,27 40.421875,27 L40.2109375,33.46875 C38.0078015,33.5625005 36.1679761,33.7499986 34.6914062,34.03125 C33.2148364,34.3125014 32.0195358,34.9101517 31.1054687,35.8242187 C30.1914017,36.7382858 29.5351582,38.07421 29.1367187,39.8320312 C28.7382793,41.5898525 28.5390625,43.9921723 28.5390625,47.0390625 L28.5390625,68.2734375 C28.5390625,71.6953296 28.0937545,74.6132692 27.203125,77.0273437 C26.3124955,79.4414183 25.2343813,81.4335859 23.96875,83.0039062 C22.7031187,84.5742266 21.3671945,85.7695271 19.9609375,86.5898437 C18.5546805,87.4101604 17.3359427,87.9140616 16.3046875,88.1015625 C18.5078235,88.8515662 20.3710861,89.9062432 21.8945312,91.265625 C23.4179764,92.6250068 24.6601514,94.1718663 25.6210938,95.90625 C26.5820361,97.6406337 27.285154,99.5156149 27.7304687,101.53125 C28.1757835,103.546885 28.3984375,105.56249 28.3984375,107.578125 L28.46875,131.695312 C28.46875,131.789063 28.4570314,131.882812 28.4335938,131.976562 C28.4101561,132.070313 28.3984375,132.164062 28.3984375,132.257812 C28.3984375,135.914081 29.3593654,138.550773 31.28125,140.167969 C33.2031346,141.785164 36.2265419,142.59375 40.3515625,142.59375 L40.28125,148.992187 C37.4687359,148.992187 34.8203249,148.675784 32.3359375,148.042969 C29.8515501,147.410153 27.6953216,146.367195 25.8671875,144.914062 C24.0390534,143.46093 22.5859429,141.57423 21.5078125,139.253906 C20.4296821,136.933582 19.890625,134.085954 19.890625,130.710937 L20.171875,111.515625 C20.171875,109.124988 20.0664073,106.804699 19.8554688,104.554687 C19.6445302,102.304676 19.140629,100.265634 18.34375,98.4375 C17.546871,96.6093659 16.3750077,95.0859436 14.828125,93.8671875 C13.2812423,92.6484314 11.1718884,91.8515644 8.5,91.4765625 L8.5703125,84.65625 C12.8828341,84.2812481 15.9296786,82.8281377 17.7109375,80.296875 C19.4921964,77.7656123 20.3593752,73.9922126 20.3125,68.9765625 L20.171875,47.7421875 Z M93.2265625,33.46875 L93.296875,27 C96.3906405,27.2343762 99.1913937,27.749996 101.699219,28.546875 C104.207044,29.343754 106.339835,30.49218 108.097656,31.9921875 C109.855478,33.492195 111.214839,35.3554576 112.175781,37.5820312 C113.136724,39.8086049 113.617188,42.4452973 113.617188,45.4921875 L113.40625,66.4453125 C113.40625,68.742199 113.546874,70.9218647 113.828125,72.984375 C114.109376,75.0468853 114.660152,76.8984293 115.480469,78.5390625 C116.300785,80.1796957 117.472649,81.5273385 118.996094,82.5820312 C120.519539,83.636724 122.546862,84.2812488 125.078125,84.515625 L124.9375,91.3359375 C122.687489,91.5234384 120.812507,92.0507769 119.3125,92.9179687 C117.812493,93.7851606 116.605473,94.9804611 115.691406,96.5039062 C114.777339,98.0273514 114.132814,99.8437395 113.757812,101.953125 C113.382811,104.062511 113.195312,106.453112 113.195312,109.125 L113.125,130.570312 C113.125,133.242201 112.750004,135.656239 112,137.8125 C111.249996,139.968761 110.242194,141.820305 108.976562,143.367187 C107.710931,144.91407 106.222665,146.144527 104.511719,147.058594 C102.800773,147.972661 100.960947,148.523437 98.9921875,148.710937 C97.8671819,148.804688 96.8359422,148.886718 95.8984375,148.957031 C94.9609328,149.027344 94.093754,149.039063 93.296875,148.992187 L93.3671875,142.59375 C95.664074,142.59375 97.5859298,142.406252 99.1328125,142.03125 C100.679695,141.656248 101.910152,140.800788 102.824219,139.464844 C103.738286,138.1289 104.382811,136.207044 104.757812,133.699219 C105.132814,131.191394 105.320312,127.781272 105.320312,123.46875 C105.320312,120.843737 105.261719,118.183607 105.144531,115.488281 C105.027343,112.792955 104.96875,110.1797 104.96875,107.648437 C104.96875,104.273421 105.414058,101.378918 106.304688,98.9648437 C107.195317,96.5507692 108.273431,94.5586016 109.539062,92.9882812 C110.804694,91.4179609 112.105462,90.234379 113.441406,89.4375 C114.77735,88.640621 115.914058,88.195313 116.851562,88.1015625 C114.3203,87.210933 112.304695,86.0156325 110.804688,84.515625 C109.30468,83.0156175 108.144535,81.3632903 107.324219,79.5585937 C106.503902,77.7538972 105.964845,75.878916 105.707031,73.9335937 C105.449217,71.9882715 105.320312,70.1250089 105.320312,68.34375 L105.25,46.3359375 C105.25,44.4140529 105.062502,42.6796952 104.6875,41.1328125 C104.312498,39.5859298 103.656255,38.2617243 102.71875,37.1601562 C101.781245,36.0585882 100.53907,35.1914094 98.9921875,34.5585937 C97.4453048,33.9257781 95.523449,33.5625005 93.2265625,33.46875 L93.2265625,33.46875 Z" id="shell-border" fill="#608E53" sketch:type="MSShapeGroup"></path>
                <path d="M86,23 C86,10.2974508 77.4934102,0 67,0 C56.5065898,0 48,10.2974508 48,23 C48,26.5838674 48.6771386,29.9762851 49.8849908,33.0000015 L84.1150152,33 C85.3228614,29.9762851 86,26.5838674 86,23 Z" id="head" fill="#ABD69F" sketch:type="MSShapeGroup"></path>
            </g>
        </g>
    </g>
</svg>