<?xml version="1.0" encoding="UTF-8" standalone="no"?>
<svg width="255px" height="277px" viewBox="0 0 255 277" version="1.1" xmlns="http://www.w3.org/2000/svg" xmlns:xlink="http://www.w3.org/1999/xlink" xmlns:sketch="http://www.bohemiancoding.com/sketch/ns">
    <!-- Generator: Sketch 3.0.3 (7891) - http://www.bohemiancoding.com/sketch -->
    <title>code-park-squrriel</title>
    <desc>Created with Sketch.</desc>
    <defs>
        <path d="M13.4863281,11.9199219 C12.9238253,11.2167934 12.2382853,10.7011735 11.4296875,10.3730469 C10.6210897,10.0449202 9.7597702,9.88085938 8.84570312,9.88085938 C7.87304201,9.88085938 7.00586318,10.0683575 6.24414062,10.4433594 C5.48241807,10.8183612 4.8349636,11.3310514 4.30175781,11.9814453 C3.76855202,12.6318392 3.36132953,13.3935503 3.08007812,14.2666016 C2.79882672,15.1396528 2.65820312,16.0742138 2.65820312,17.0703125 C2.65820312,18.0546924 2.78124877,18.9746051 3.02734375,19.8300781 C3.27343873,20.6855512 3.64843498,21.4296843 4.15234375,22.0625 C4.65625252,22.6953157 5.29491801,23.1904279 6.06835938,23.5478516 C6.84180074,23.9052752 7.7558541,24.0839844 8.81054688,24.0839844 C10.7910255,24.0839844 12.5663984,23.4043037 14.1367188,22.0449219 L14.9453125,24.4707031 C14.0898395,25.150394 13.1347709,25.6425766 12.0800781,25.9472656 C11.0253854,26.2519546 9.85938139,26.4042969 8.58203125,26.4042969 C7.09374256,26.4042969 5.79004466,26.1611352 4.67089844,25.6748047 C3.55175222,25.1884741 2.61719125,24.5263714 1.8671875,23.6884766 C1.11718375,22.8505817 0.554689375,21.8691463 0.1796875,20.7441406 C-0.195314375,19.619135 -0.3828125,18.4238345 -0.3828125,17.1582031 C-0.3828125,15.8456966 -0.183595742,14.6035215 0.21484375,13.4316406 C0.613283242,12.2597598 1.19335557,11.2373091 1.95507812,10.3642578 C2.71680068,9.49120657 3.65429131,8.79980724 4.76757812,8.29003906 C5.88086494,7.78027089 7.1523366,7.52539062 8.58203125,7.52539062 C10.0000071,7.52539062 11.2421822,7.74804465 12.3085938,8.19335938 C13.3750053,8.6386741 14.2070283,9.25390232 14.8046875,10.0390625 L13.4863281,11.9199219 Z M27.2851562,7.52539062 C28.7968826,7.52539062 30.1240177,7.77148191 31.2666016,8.26367188 C32.4091854,8.75586184 33.3613243,9.42968322 34.1230469,10.2851562 C34.8847694,11.1406293 35.4589824,12.1425724 35.8457031,13.2910156 C36.2324238,14.4394589 36.4257812,15.6699153 36.4257812,16.9824219 C36.4257812,18.2480532 36.2236348,19.4521427 35.8193359,20.5947266 C35.415037,21.7373104 34.8232461,22.7392535 34.0439453,23.6005859 C33.2646445,24.4619184 32.300787,25.1445287 31.1523438,25.6484375 C30.0039005,26.1523463 28.6914136,26.4042969 27.2148438,26.4042969 C25.7148362,26.4042969 24.3906307,26.1582056 23.2421875,25.6660156 C22.0937443,25.1738257 21.1298867,24.5058636 20.3505859,23.6621094 C19.5712852,22.8183552 18.9794942,21.825201 18.5751953,20.6826172 C18.1708964,19.5400333 17.96875,18.3183659 17.96875,17.0175781 C17.96875,15.7167904 18.1738261,14.4892636 18.5839844,13.3349609 C18.9941427,12.1806583 19.5947226,11.1728559 20.3857422,10.3115234 C21.1767618,9.45019101 22.1494083,8.7705103 23.3037109,8.27246094 C24.4580136,7.77441157 25.7851488,7.52539062 27.2851562,7.52539062 Z M33.3671875,17.0175781 C33.3671875,16.0566358 33.2441419,15.1425825 32.9980469,14.2753906 C32.7519519,13.4081988 32.3769556,12.6494173 31.8730469,11.9990234 C31.3691381,11.3486296 30.7304726,10.8330097 29.9570313,10.4521484 C29.1835899,10.0712872 28.2695365,9.88085938 27.2148438,9.88085938 C26.1953074,9.88085938 25.298832,10.0771465 24.5253906,10.4697266 C23.7519493,10.8623067 23.1044948,11.3896451 22.5830078,12.0517578 C22.0615208,12.7138705 21.6689466,13.4785113 21.4052734,14.3457031 C21.1416002,15.212895 21.0097656,16.1152297 21.0097656,17.0527344 C21.0097656,17.9902391 21.1416002,18.8808552 21.4052734,19.7246094 C21.6689466,20.5683636 22.0615208,21.3154264 22.5830078,21.9658203 C23.1044948,22.6162142 23.7578086,23.131834 24.5429688,23.5126953 C25.3281289,23.8935566 26.2421823,24.0839844 27.2851563,24.0839844 C28.3164114,24.0839844 29.2128868,23.8906269 29.9746094,23.5039062 C30.7363319,23.1171856 31.3691381,22.5986361 31.8730469,21.9482422 C32.3769556,21.2978483 32.7519519,20.5478558 32.9980469,19.6982422 C33.2441419,18.8486286 33.3671875,17.9550828 33.3671875,17.0175781 Z M54.2324219,26 L54.1621094,23.4160156 C53.4003868,24.494146 52.5185597,25.2617165 51.5166016,25.71875 C50.5146434,26.1757835 49.3222725,26.4042969 47.9394531,26.4042969 C46.5449149,26.4042969 45.3349661,26.1611352 44.3095703,25.6748047 C43.2841746,25.1884741 42.4375033,24.5234417 41.7695312,23.6796875 C41.1015592,22.8359333 40.6035173,21.8486385 40.2753906,20.7177734 C39.947264,19.5869084 39.7832031,18.3828189 39.7832031,17.1054688 C39.7832031,15.8398374 39.956053,14.6298886 40.3017578,13.4755859 C40.6474627,12.3212833 41.1689418,11.3017622 41.8662109,10.4169922 C42.56348,9.53222214 43.4306589,8.82910417 44.4677734,8.30761719 C45.504888,7.78613021 46.7089775,7.52539062 48.0800781,7.52539062 C49.3808659,7.52539062 50.5497995,7.77148191 51.5869141,8.26367188 C52.6240286,8.75586184 53.4824185,9.46483912 54.1621094,10.390625 L54.1621094,-0.2265625 L57.0625,-0.2265625 L57.0625,21.5 C57.0742188,22.2031285 57.0888671,22.9589803 57.1064453,23.7675781 C57.1240235,24.5761759 57.1445311,25.3203091 57.1679688,26 L54.2324219,26 Z M48.3964844,24.0839844 C49.3457079,24.0839844 50.1806605,23.8994159 50.9013672,23.5302734 C51.6220739,23.161131 52.2255835,22.6396518 52.7119141,21.9658203 C53.1982446,21.2919888 53.5644519,20.4804735 53.8105469,19.53125 C54.0566419,18.5820265 54.1796875,17.5273496 54.1796875,16.3671875 C54.1796875,15.3945264 54.0478529,14.5097696 53.7841797,13.7128906 C53.5205065,12.9160116 53.1425806,12.2334013 52.6503906,11.6650391 C52.1582007,11.0966768 51.5664097,10.6572281 50.875,10.3466797 C50.1835903,10.0361313 49.4101605,9.88085938 48.5546875,9.88085938 C47.5585888,9.88085938 46.7001989,10.0742168 45.9794922,10.4609375 C45.2587855,10.8476582 44.6640648,11.3691373 44.1953125,12.0253906 C43.7265602,12.6816439 43.3808605,13.4462847 43.1582031,14.3193359 C42.9355458,15.1923872 42.8242188,16.1152295 42.8242188,17.0878906 C42.8242188,18.0019577 42.9208975,18.8808552 43.1142578,19.7246094 C43.3076182,20.5683636 43.6240212,21.3124968 44.0634766,21.9570312 C44.5029319,22.6015657 45.0771449,23.1171856 45.7861328,23.5039062 C46.4951207,23.8906269 47.3652292,24.0839844 48.3964844,24.0839844 Z M78.2089844,23.9785156 C77.2363233,24.8222698 76.158209,25.4374981 74.9746094,25.8242188 C73.7910097,26.2109394 72.4492262,26.4042969 70.9492188,26.4042969 C69.5312429,26.4042969 68.2656306,26.1728539 67.1523438,25.7099609 C66.0390569,25.247068 65.0986367,24.6025432 64.3310547,23.7763672 C63.5634727,22.9501912 62.9775411,21.9628964 62.5732422,20.8144531 C62.1689433,19.6660099 61.9667969,18.4062569 61.9667969,17.0351562 C61.9667969,15.7343685 62.1660136,14.5097714 62.5644531,13.3613281 C62.9628926,12.2128849 63.5429649,11.2050825 64.3046875,10.3378906 C65.0664101,9.47069879 65.9951117,8.78515877 67.0908203,8.28125 C68.1865289,7.77734123 69.437493,7.52539062 70.84375,7.52539062 C72.2265694,7.52539062 73.4277293,7.75097431 74.4472656,8.20214844 C75.466802,8.65332257 76.3046842,9.27441011 76.9609375,10.0654297 C77.6171908,10.8564493 78.1064437,11.7968696 78.4287109,12.8867188 C78.7509782,13.9765679 78.9121094,15.1601499 78.9121094,16.4375 C78.9121094,16.5664069 78.9091797,16.7158195 78.9033203,16.8857422 C78.8974609,17.0556649 78.8886719,17.2109368 78.8769531,17.3515625 L65.0429688,17.3515625 L65.0957031,18.1425781 C65.166016,19.0214888 65.3447251,19.8242151 65.6318359,20.5507812 C65.9189467,21.2773474 66.3144506,21.9042942 66.8183594,22.4316406 C67.3222681,22.958987 67.9345667,23.3662095 68.6552734,23.6533203 C69.3759802,23.9404311 70.1992141,24.0839844 71.125,24.0839844 C72.3671937,24.0839844 73.5039011,23.8671897 74.5351562,23.4335938 C75.5664114,22.9999978 76.4921834,22.3789103 77.3125,21.5703125 L78.2089844,23.9785156 Z M75.8710938,15.2949219 L75.8535156,15.0488281 C75.7949216,14.2871056 75.645509,13.5898469 75.4052734,12.9570312 C75.1650379,12.3242156 74.8339865,11.7792992 74.4121094,11.3222656 C73.9902323,10.8652321 73.4775421,10.5107434 72.8740234,10.2587891 C72.2705048,10.0068347 71.5878944,9.88085938 70.8261719,9.88085938 C70.0058553,9.88085938 69.2675814,10.0244126 68.6113281,10.3115234 C67.9550748,10.5986342 67.3896508,10.9882788 66.9150391,11.4804688 C66.4404273,11.9726587 66.0566421,12.5468717 65.7636719,13.203125 C65.4707017,13.8593783 65.2714849,14.5566369 65.1660156,15.2949219 L75.8710938,15.2949219 Z M96.7714844,33.5058594 L93.8886719,33.5058594 L93.8886719,12.6757812 C93.8886719,12.4296863 93.8857422,12.1279315 93.8798828,11.7705078 C93.8740234,11.4130842 93.8652344,11.0234396 93.8535156,10.6015625 C93.8417968,10.1796854 93.8271485,9.74316632 93.8095703,9.29199219 C93.7919921,8.84081806 93.7714845,8.39843967 93.7480469,7.96484375 L96.6835938,7.96484375 L96.7714844,10.53125 C97.5097693,9.53515127 98.3974558,8.78515877 99.4345703,8.28125 C100.471685,7.77734123 101.605463,7.52539062 102.835938,7.52539062 C104.253913,7.52539062 105.48144,7.77148191 106.518555,8.26367188 C107.555669,8.75586184 108.414059,9.42089425 109.09375,10.2587891 C109.773441,11.0966839 110.280272,12.0722601 110.614258,13.1855469 C110.948244,14.2988337 111.115234,15.4824156 111.115234,16.7363281 C111.115234,18.0019595 110.942385,19.2177676 110.59668,20.3837891 C110.250975,21.5498105 109.735355,22.5781205 109.049805,23.46875 C108.364254,24.3593795 107.502935,25.0712864 106.46582,25.6044922 C105.428706,26.137698 104.218757,26.4042969 102.835938,26.4042969 C100.304675,26.4042969 98.2832107,25.4785249 96.7714844,23.6269531 L96.7714844,33.5058594 Z M96.7714844,17.3164062 C96.7714844,18.2890674 96.89453,19.1884724 97.140625,20.0146484 C97.38672,20.8408244 97.7470679,21.555661 98.2216797,22.1591797 C98.6962914,22.7626983 99.2851527,23.2343733 99.9882812,23.5742188 C100.69141,23.9140642 101.499995,24.0839844 102.414062,24.0839844 C103.398442,24.0839844 104.245114,23.8847676 104.954102,23.4863281 C105.663089,23.0878886 106.243162,22.5546908 106.694336,21.8867188 C107.14551,21.2187467 107.479491,20.4482466 107.696289,19.5751953 C107.913087,18.7021441 108.021484,17.7910204 108.021484,16.8417969 C108.021484,15.9511674 107.927735,15.0869183 107.740234,14.2490234 C107.552733,13.4111286 107.245119,12.6669954 106.817383,12.0166016 C106.389646,11.3662077 105.824222,10.8476582 105.121094,10.4609375 C104.417965,10.0742168 103.550786,9.88085938 102.519531,9.88085938 C101.441401,9.88085938 100.536136,10.0859354 99.8037109,10.4960938 C99.0712854,10.9062521 98.4794944,11.4540981 98.0283203,12.1396484 C97.5771462,12.8251987 97.2548838,13.6162065 97.0615234,14.5126953 C96.8681631,15.4091842 96.7714844,16.3437451 96.7714844,17.3164062 Z M122.628906,7.52539062 C123.367191,7.52539062 124.041013,7.59277276 124.650391,7.72753906 C125.259769,7.86230536 125.822263,8.05273314 126.337891,8.29882812 C126.853518,8.54492311 127.328123,8.84960756 127.761719,9.21289062 C128.195315,9.57617369 128.599607,9.98632584 128.974609,10.4433594 L129.080078,7.96484375 L131.945312,7.96484375 L131.875,12.4121094 L131.875,26 L128.974609,26 L129.009766,23.46875 C128.728514,23.8437519 128.374026,24.2099592 127.946289,24.5673828 C127.518553,24.9248065 127.035159,25.2382799 126.496094,25.5078125 C125.957029,25.7773451 125.362308,25.9941398 124.711914,26.1582031 C124.06152,26.3222664 123.37891,26.4042969 122.664063,26.4042969 C121.656245,26.4042969 120.742192,26.2724623 119.921875,26.0087891 C119.101558,25.7451159 118.369144,25.3818383 117.724609,24.9189453 C117.080075,24.4560524 116.52051,23.9140656 116.045898,23.2929688 C115.571287,22.6718719 115.181642,22.0039098 114.876953,21.2890625 C114.572264,20.5742152 114.343751,19.8330117 114.191406,19.0654297 C114.039062,18.2978477 113.962891,17.5390662 113.962891,16.7890625 C113.962891,15.6289004 114.1416,14.4921931 114.499023,13.3789062 C114.856447,12.2656194 115.395504,11.275395 116.116211,10.4082031 C116.836918,9.54101129 117.739252,8.84375264 118.823242,8.31640625 C119.907232,7.78905986 121.175774,7.52539062 122.628906,7.52539062 Z M122.962891,24.0839844 C123.783207,24.0839844 124.553707,23.9169939 125.274414,23.5830078 C125.995121,23.2490218 126.627927,22.7568392 127.172852,22.1064453 C127.717776,21.4560514 128.151366,20.6474658 128.473633,19.6806641 C128.7959,18.7138624 128.962891,17.5976626 128.974609,16.3320312 C128.974609,15.3828078 128.831056,14.5156289 128.543945,13.7304688 C128.256835,12.9453086 127.849612,12.2656279 127.322266,11.6914062 C126.794919,11.1171846 126.153324,10.6718766 125.397461,10.3554688 C124.641598,10.0390609 123.794927,9.88085938 122.857422,9.88085938 C122.142575,9.88085938 121.49805,9.9775381 120.923828,10.1708984 C120.349607,10.3642588 119.839846,10.6308577 119.394531,10.9707031 C118.949217,11.3105486 118.562502,11.7089821 118.234375,12.1660156 C117.906248,12.6230492 117.63672,13.1123021 117.425781,13.6337891 C117.214843,14.155276 117.059571,14.6972628 116.959961,15.2597656 C116.860351,15.8222684 116.810547,16.3789035 116.810547,16.9296875 C116.810547,17.4687527 116.848632,18.0224581 116.924805,18.5908203 C117.000977,19.1591825 117.126952,19.7070286 117.302734,20.234375 C117.478517,20.7617214 117.718748,21.2597633 118.023438,21.7285156 C118.328127,22.197268 118.706052,22.6044905 119.157227,22.9501953 C119.608401,23.2959002 120.147458,23.571288 120.774414,23.7763672 C121.40137,23.9814463 122.130855,24.0839844 122.962891,24.0839844 Z M140.101562,26 L137.201172,26 L137.201172,12.3066406 C137.201172,11.5683557 137.189453,10.8300818 137.166016,10.0917969 C137.142578,9.35351193 137.119141,8.64453465 137.095703,7.96484375 L139.996094,7.96484375 L140.101562,10.6894531 C140.593752,9.69335439 141.261715,8.91992463 142.105469,8.36914062 C142.949223,7.81835662 143.886714,7.54296875 144.917969,7.54296875 C145.59766,7.54296875 146.230466,7.61328055 146.816406,7.75390625 L146.851562,10.4785156 C146.605468,10.3496087 146.306642,10.2470707 145.955078,10.1708984 C145.603514,10.0947262 145.228518,10.0566406 144.830078,10.0566406 C144.12695,10.0566406 143.482425,10.1943346 142.896484,10.4697266 C142.310544,10.7451186 141.812502,11.1406224 141.402344,11.65625 C140.992185,12.1718776 140.672853,12.7988244 140.444336,13.5371094 C140.215819,14.2753943 140.101562,15.1015579 140.101562,16.015625 L140.101562,26 Z M153.25,-0.2265625 L153.25,15.6816406 L161.441406,7.96484375 L165.396484,7.96484375 L156.080078,16.4726562 C157.73243,18.0546954 159.396476,19.6425702 161.072266,21.2363281 C162.748055,22.8300861 164.412101,24.4179608 166.064453,26 L162.214844,26 L153.25,17.1933594 L153.25,26 L150.349609,26 L150.349609,-0.2265625 L153.25,-0.2265625 Z" id="path-1"></path>
        <path id="path-3" d="M169.160156,27.3378906 C169.71094,27.3378906 170.170897,27.2734381 170.540039,27.1445312 C170.909182,27.0156244 171.202147,26.7900407 171.418945,26.4677734 C171.635743,26.1455062 171.791015,25.7119168 171.884766,25.1669922 C171.978516,24.6220676 172.025391,23.9394572 172.025391,23.1191406 C172.025391,22.5214814 172.019531,21.8769566 172.007812,21.1855469 C171.996094,20.4941372 171.990234,19.861331 171.990234,19.2871094 C171.990234,18.8886699 172.022461,18.4609398 172.086914,18.0039062 C172.151368,17.5468727 172.271483,17.098635 172.447266,16.6591797 C172.623048,16.2197244 172.866209,15.8154315 173.176758,15.4462891 C173.487306,15.0771466 173.894529,14.7753918 174.398438,14.5410156 C174.140624,14.4003899 173.868165,14.2011732 173.581055,13.9433594 C173.293944,13.6855456 173.030275,13.3603535 172.790039,12.9677734 C172.549803,12.5751933 172.347657,12.1123074 172.183594,11.5791016 C172.01953,11.0458958 171.9375,10.4335972 171.9375,9.7421875 L171.919922,4.66210938 C171.919922,4.09960656 171.861329,3.63379091 171.744141,3.26464844 C171.626953,2.89550597 171.454103,2.59668083 171.225586,2.36816406 C170.997069,2.13964729 170.709963,1.97558644 170.364258,1.87597656 C170.018553,1.77636669 169.61719,1.72070318 169.160156,1.70898438 L169.160156,-0.505859375 C170.20313,-0.505859375 171.084957,-0.38281373 171.805664,-0.13671875 C172.526371,0.10937623 173.112302,0.463864873 173.563477,0.926757812 C174.014651,1.38965075 174.339843,1.95507479 174.539062,2.62304688 C174.738282,3.29101896 174.837891,4.0527301 174.837891,4.90820312 C174.814453,5.64648807 174.802734,6.38769159 174.802734,7.13183594 C174.802734,7.87598028 174.791016,8.61718381 174.767578,9.35546875 C174.767578,9.94140918 174.820312,10.4775366 174.925781,10.9638672 C175.031251,11.4501977 175.195311,11.8691389 175.417969,12.2207031 C175.640626,12.5722674 175.933592,12.8564442 176.296875,13.0732422 C176.660158,13.2900401 177.099607,13.4218748 177.615234,13.46875 L177.597656,15.6132812 C176.917965,15.6835941 176.390627,15.8593736 176.015625,16.140625 C175.640623,16.4218764 175.365235,16.7705057 175.189453,17.1865234 C175.013671,17.6025411 174.908203,18.0712865 174.873047,18.5927734 C174.83789,19.1142604 174.820312,19.6445286 174.820312,20.1835938 L174.837891,24.8066406 C174.837891,25.6503948 174.697267,26.3652314 174.416016,26.9511719 C174.134764,27.5371123 173.73926,28.0175762 173.229492,28.3925781 C172.719724,28.76758 172.119144,29.0458975 171.427734,29.2275391 C170.736325,29.4091806 169.980473,29.5175779 169.160156,29.5527344 L169.160156,27.3378906 Z"></path>
        <path id="path-5" d="M-4.05078125,29.5527344 C-4.87109785,29.5175779 -5.62694967,29.4091806 -6.31835938,29.2275391 C-7.00976908,29.0458975 -7.61034901,28.76758 -8.12011719,28.3925781 C-8.62988536,28.0175762 -9.02538922,27.5371123 -9.30664062,26.9511719 C-9.58789203,26.3652314 -9.72851562,25.6503948 -9.72851562,24.8066406 L-9.7109375,20.1835938 C-9.7109375,19.6445286 -9.72851545,19.1142604 -9.76367188,18.5927734 C-9.7988283,18.0712865 -9.904296,17.6025411 -10.0800781,17.1865234 C-10.2558603,16.7705057 -10.5312481,16.4218764 -10.90625,16.140625 C-11.2812519,15.8593736 -11.8085904,15.6835941 -12.4882812,15.6132812 L-12.5058594,13.46875 C-11.9902318,13.4218748 -11.5507831,13.2900401 -11.1875,13.0732422 C-10.8242169,12.8564442 -10.5312511,12.5722674 -10.3085938,12.2207031 C-10.0859364,11.8691389 -9.92187553,11.4501977 -9.81640625,10.9638672 C-9.71093697,10.4775366 -9.65820312,9.94140918 -9.65820312,9.35546875 C-9.68164074,8.61718381 -9.69335938,7.87598028 -9.69335938,7.13183594 C-9.69335938,6.38769159 -9.70507801,5.64648807 -9.72851562,4.90820312 C-9.72851562,4.0527301 -9.62890725,3.29101896 -9.4296875,2.62304688 C-9.23046775,1.95507479 -8.90820535,1.38965075 -8.46289062,0.926757812 C-8.0175759,0.463864873 -7.43164426,0.10937623 -6.70507812,-0.13671875 C-5.97851199,-0.38281373 -5.09375521,-0.505859375 -4.05078125,-0.505859375 L-4.05078125,1.70898438 C-4.50781479,1.72070318 -4.90917796,1.77636669 -5.25488281,1.87597656 C-5.60058767,1.97558644 -5.88769417,2.13964729 -6.11621094,2.36816406 C-6.34472771,2.59668083 -6.51757754,2.89550597 -6.63476562,3.26464844 C-6.75195371,3.63379091 -6.81054688,4.09960656 -6.81054688,4.66210938 L-6.828125,9.7421875 C-6.828125,10.4335972 -6.91015543,11.0458958 -7.07421875,11.5791016 C-7.23828207,12.1123074 -7.44042849,12.5751933 -7.68066406,12.9677734 C-7.92089964,13.3603535 -8.18456888,13.6855456 -8.47167969,13.9433594 C-8.7587905,14.2011732 -9.03124871,14.4003899 -9.2890625,14.5410156 C-8.78515373,14.7753918 -8.37793124,15.0771466 -8.06738281,15.4462891 C-7.75683438,15.8154315 -7.51367275,16.2197244 -7.33789062,16.6591797 C-7.1621085,17.098635 -7.04199251,17.5468727 -6.97753906,18.0039062 C-6.91308562,18.4609398 -6.88085938,18.8886699 -6.88085938,19.2871094 C-6.88085938,19.861331 -6.88671869,20.4941372 -6.8984375,21.1855469 C-6.91015631,21.8769566 -6.91601562,22.5214814 -6.91601562,23.1191406 C-6.91601562,23.9394572 -6.86914109,24.6220676 -6.77539062,25.1669922 C-6.68164016,25.7119168 -6.52636827,26.1455062 -6.30957031,26.4677734 C-6.09277235,26.7900407 -5.79980653,27.0156244 -5.43066406,27.1445312 C-5.06152159,27.2734381 -4.60156525,27.3378906 -4.05078125,27.3378906 L-4.05078125,29.5527344 Z"></path>
        <path id="path-7" d="M31.4437536,-0.100632748 L31.4453125,-0.1484375 C27.7890442,-0.1484375 24.6836065,0.320307813 22.1289062,1.2578125 C19.574206,2.19531719 17.4882893,3.55467859 15.8710938,5.3359375 C14.2538982,7.11719641 13.0703162,9.28514348 12.3203125,11.8398438 C11.5703088,14.394544 11.1953125,17.3124836 11.1953125,20.59375 L11.3359375,41.828125 C11.3828127,46.8437751 10.5156339,50.6171748 8.734375,53.1484375 C6.95311609,55.6797002 3.90627156,57.1328106 -0.40625,57.5078125 L-0.4765625,64.328125 C2.19532586,64.7031269 4.30467977,65.4999939 5.8515625,66.71875 C7.39844523,67.9375061 8.57030852,69.4609284 9.3671875,71.2890625 C10.1640665,73.1171966 10.6679677,75.1562387 10.8789062,77.40625 C11.0898448,79.6562613 11.1953125,81.9765505 11.1953125,84.3671875 L10.9140625,103.5625 C10.9140625,106.937517 11.4531196,109.785145 12.53125,112.105469 C13.6093804,114.425793 15.0624909,116.312493 16.890625,117.765625 C18.7187591,119.218757 20.8749876,120.261716 23.359375,120.894531 C25.0377293,121.322037 26.790941,121.605137 28.6190346,121.743835 C29.0057787,121.809949 29.3814972,121.84375 29.7421875,121.84375 L84.3203125,121.84375 C85.1171915,121.890625 85.9843703,121.878907 86.921875,121.808594 C87.8593797,121.738281 88.8906194,121.65625 90.015625,121.5625 C91.9843848,121.374999 93.8242102,120.824223 95.5351562,119.910156 C97.2461023,118.996089 98.7343687,117.765633 100,116.21875 C101.265631,114.671867 102.273434,112.820323 103.023437,110.664063 C103.773441,108.507802 104.148437,106.093763 104.148437,103.421875 L104.21875,81.9765625 C104.21875,79.3046741 104.406248,76.914073 104.78125,74.8046875 C105.156252,72.695302 105.800777,70.8789139 106.714844,69.3554688 C107.628911,67.8320236 108.83593,66.6367231 110.335937,65.7695313 C111.835945,64.9023394 113.710926,64.3750009 115.960937,64.1875 L116.101562,57.3671875 C113.5703,57.1328113 111.542976,56.4882865 110.019531,55.4335938 C108.496086,54.378901 107.324223,53.0312582 106.503906,51.390625 C105.68359,49.7499918 105.132814,47.8984478 104.851562,45.8359375 C104.570311,43.7734272 104.429687,41.5937615 104.429687,39.296875 L104.640625,18.34375 C104.640625,15.2968598 104.160161,12.6601674 103.199219,10.4335938 C102.238276,8.20702012 100.878915,6.3437575 99.1210937,4.84375 C97.3632725,3.3437425 95.2304813,2.19531648 92.7226562,1.3984375 C90.2148312,0.601558516 87.414078,0.0859386719 84.3203125,-0.1484375 L31.4437536,-0.100632748 L31.4437536,-0.100632748 Z"></path>
        <path d="M11.1953125,20.59375 C11.1953125,17.3124836 11.5703088,14.394544 12.3203125,11.8398438 C13.0703162,9.28514348 14.2538982,7.11719641 15.8710938,5.3359375 C17.4882893,3.55467859 19.574206,2.19531719 22.1289062,1.2578125 C24.6836065,0.320307813 27.7890442,-0.1484375 31.4453125,-0.1484375 L31.234375,6.3203125 C29.031239,6.41406297 27.1914136,6.60156109 25.7148437,6.8828125 C24.2382739,7.16406391 23.0429733,7.76171418 22.1289062,8.67578125 C21.2148392,9.58984832 20.5585957,10.9257725 20.1601562,12.6835938 C19.7617168,14.441415 19.5625,16.8437348 19.5625,19.890625 L19.5625,41.125 C19.5625,44.5468921 19.117192,47.4648317 18.2265625,49.8789062 C17.335933,52.2929808 16.2578188,54.2851484 14.9921875,55.8554688 C13.7265562,57.4257891 12.390632,58.6210896 10.984375,59.4414062 C9.57811797,60.2617229 8.35938016,60.7656241 7.328125,60.953125 C9.53126102,61.7031288 11.3945236,62.7578057 12.9179687,64.1171875 C14.4414139,65.4765693 15.6835889,67.0234288 16.6445312,68.7578125 C17.6054736,70.4921962 18.3085915,72.3671774 18.7539062,74.3828125 C19.199221,76.3984476 19.421875,78.4140524 19.421875,80.4296875 L19.4921875,104.546875 C19.4921875,104.640625 19.4804689,104.734375 19.4570312,104.828125 C19.4335936,104.921875 19.421875,105.015625 19.421875,105.109375 C19.421875,108.765643 20.3828029,111.402336 22.3046875,113.019531 C24.2265721,114.636727 27.2499794,115.445312 31.375,115.445312 L31.3046875,121.84375 C28.4921734,121.84375 25.8437624,121.527347 23.359375,120.894531 C20.8749876,120.261716 18.7187591,119.218757 16.890625,117.765625 C15.0624909,116.312493 13.6093804,114.425793 12.53125,112.105469 C11.4531196,109.785145 10.9140625,106.937517 10.9140625,103.5625 L11.1953125,84.3671875 C11.1953125,81.9765505 11.0898448,79.6562613 10.8789062,77.40625 C10.6679677,75.1562387 10.1640665,73.1171966 9.3671875,71.2890625 C8.57030852,69.4609284 7.39844523,67.9375061 5.8515625,66.71875 C4.30467977,65.4999939 2.19532586,64.7031269 -0.4765625,64.328125 L-0.40625,57.5078125 C3.90627156,57.1328106 6.95311609,55.6797002 8.734375,53.1484375 C10.5156339,50.6171748 11.3828127,46.8437751 11.3359375,41.828125 L11.1953125,20.59375 Z M84.25,6.3203125 L84.3203125,-0.1484375 C87.414078,0.0859386719 90.2148312,0.601558516 92.7226562,1.3984375 C95.2304813,2.19531648 97.3632725,3.3437425 99.1210938,4.84375 C100.878915,6.3437575 102.238276,8.20702012 103.199219,10.4335938 C104.160161,12.6601674 104.640625,15.2968598 104.640625,18.34375 L104.429688,39.296875 C104.429688,41.5937615 104.570311,43.7734272 104.851562,45.8359375 C105.132814,47.8984478 105.68359,49.7499918 106.503906,51.390625 C107.324223,53.0312582 108.496086,54.378901 110.019531,55.4335938 C111.542976,56.4882865 113.5703,57.1328113 116.101562,57.3671875 L115.960938,64.1875 C113.710926,64.3750009 111.835945,64.9023394 110.335938,65.7695312 C108.83593,66.6367231 107.628911,67.8320236 106.714844,69.3554688 C105.800777,70.8789139 105.156252,72.695302 104.78125,74.8046875 C104.406248,76.914073 104.21875,79.3046741 104.21875,81.9765625 L104.148438,103.421875 C104.148438,106.093763 103.773441,108.507802 103.023438,110.664062 C102.273434,112.820323 101.265631,114.671867 100,116.21875 C98.7343687,117.765633 97.2461023,118.996089 95.5351562,119.910156 C93.8242102,120.824223 91.9843848,121.374999 90.015625,121.5625 C88.8906194,121.65625 87.8593797,121.738281 86.921875,121.808594 C85.9843703,121.878907 85.1171915,121.890625 84.3203125,121.84375 L84.390625,115.445312 C86.6875115,115.445312 88.6093673,115.257814 90.15625,114.882812 C91.7031327,114.507811 92.9335892,113.65235 93.8476562,112.316406 C94.7617233,110.980462 95.4062481,109.058606 95.78125,106.550781 C96.1562519,104.042956 96.34375,100.632834 96.34375,96.3203125 C96.34375,93.6952994 96.2851568,91.0351697 96.1679688,88.3398438 C96.0507807,85.6445178 95.9921875,83.0312627 95.9921875,80.5 C95.9921875,77.1249831 96.4374955,74.2304808 97.328125,71.8164062 C98.2187545,69.4023317 99.2968687,67.4101641 100.5625,65.8398438 C101.828131,64.2695234 103.1289,63.0859415 104.464844,62.2890625 C105.800788,61.4921835 106.937495,61.0468755 107.875,60.953125 C105.343737,60.0624955 103.328133,58.867195 101.828125,57.3671875 C100.328117,55.86718 99.1679729,54.2148528 98.3476562,52.4101562 C97.5273396,50.6054597 96.9882825,48.7304785 96.7304688,46.7851562 C96.472655,44.839834 96.34375,42.9765714 96.34375,41.1953125 L96.2734375,19.1875 C96.2734375,17.2656154 96.0859394,15.5312577 95.7109375,13.984375 C95.3359356,12.4374923 94.6796922,11.1132868 93.7421875,10.0117188 C92.8046828,8.91015074 91.5625077,8.04297191 90.015625,7.41015625 C88.4687423,6.77734059 86.5468865,6.41406297 84.25,6.3203125 L84.25,6.3203125 Z" id="path-9"></path>
    </defs>
    <g id="Page-1" stroke="none" stroke-width="1" fill="none" fill-rule="evenodd" sketch:type="MSPage">
        <g id="code-park-squrriel" sketch:type="MSArtboardGroup">
            <g id="{-+-}-+-{code-park}" sketch:type="MSLayerGroup" transform="translate(45.000000, 218.000000)">
                <mask id="mask-2" sketch:name="code park" fill="white">
                    <use xlink:href="#path-1"></use>
                </mask>
                <use id="code-park" fill="#6F4B2E" sketch:type="MSShapeGroup" xlink:href="#path-1"></use>
                <mask id="mask-4" sketch:name="}" fill="white">
                    <use xlink:href="#path-3"></use>
                </mask>
                <use id="}" fill="#AF8D71" sketch:type="MSShapeGroup" xlink:href="#path-3"></use>
                <mask id="mask-6" sketch:name="{" fill="white">
                    <use xlink:href="#path-5"></use>
                </mask>
                <use id="{" fill="#AF8D71" sketch:type="MSShapeGroup" xlink:href="#path-5"></use>
            </g>
            <g id="squirrel" sketch:type="MSLayerGroup" transform="translate(69.000000, 24.000000)">
                <g id="{-}-+-Path-2" transform="translate(0.000000, 37.000000)">
                    <mask id="mask-8" sketch:name="{ }" fill="white">
                        <use xlink:href="#path-7"></use>
                    </mask>
                    <use id="{-}" fill="#F0DCCC" sketch:type="MSShapeGroup" xlink:href="#path-7"></use>
                </g>
                <g id="{-}-+-Path-3" transform="translate(0.000000, 37.000000)">
                    <mask id="mask-10" sketch:name="{ }" fill="white">
                        <use xlink:href="#path-9"></use>
                    </mask>
                    <use id="{-}" fill="#AF8D71" sketch:type="MSShapeGroup" xlink:href="#path-9"></use>
                </g>
                <g id="Group" transform="translate(9.000000, 0.000000)" sketch:type="MSShapeGroup">
                    <path d="M49,163 C71.6436747,163 89.9999998,163 90,136.00885 C90.0000005,70.1504425 62.8496094,41 49,41 C35.1503906,41 5.95507813,70.1061601 8,136.00885 C8.83662853,162.971283 26.3563253,163 49,163 Z" id="Oval-10" fill="#7E5C3F"></path>
                    <path d="M50.0335727,140 C64.9267192,140 76.9999999,140 77,124.402655 C77.0000003,86.3451327 59.1427065,69.5 50.0335727,69.5 C40.9244389,69.5 21.722164,86.3195433 23.0671454,124.402655 C23.6174108,139.983405 35.1404261,140 50.0335727,140 Z" id="Oval-13" fill="#AF8D71"></path>
                    <g id="Rectangle-1-+-Rectangle-4" transform="translate(0.000000, 68.000000)" fill="#7E5C3F">
                        <path d="M22.1810903,35.0820834 C30.9341565,42.6963001 39.4649689,46.4482558 42.3261776,43.5870471 C45.6116754,40.3015493 40.1772508,29.5402802 30.1880505,19.5510799 C29.8126985,19.1757279 29.4362563,18.8068069 29.0591616,18.4445379 C26.3693163,23.0355748 23.9757266,28.5666718 22.1810903,35.0820834 Z M78.2340711,33.8188176 C69.0010669,42.273031 59.6891095,46.6023342 56.6738224,43.5870471 C53.3883246,40.3015493 58.8227492,29.5402802 68.8119495,19.5510799 C69.5798914,18.783138 70.3523963,18.0421153 71.1257168,17.3299042 C73.8317394,21.8427288 76.2934087,27.3237745 78.2340711,33.8188176 Z" id="Rectangle-1"></path>
                    </g>
                    <g id="head" transform="translate(30.000000, 0.000000)" fill="#7E5C3F">
                        <path d="M8.23529412,18.8444444 C10.8342812,18.8444444 12.9411765,14.6259719 12.9411765,9.42222222 C12.9411765,4.21847258 8.48134,0 5.88235294,0 C3.28336588,0 3.52941176,4.21847258 3.52941176,9.42222222 C3.52941176,14.6259719 5.63630706,18.8444444 8.23529412,18.8444444 Z" id="Oval-10"></path>
                        <path d="M30.5882353,18.8444444 C33.1872224,18.8444444 35.2941176,14.6259719 35.2941176,9.42222222 C35.2941176,4.21847258 35.5401635,0 32.9411765,0 C30.3421894,0 25.8823529,4.21847258 25.8823529,9.42222222 C25.8823529,14.6259719 27.9892482,18.8444444 30.5882353,18.8444444 Z" id="Oval-11"></path>
                        <path d="M20,53 C20,53 40.5608259,49.2471453 40.5608259,34.6115994 C40.5608259,26.0477269 35.8938429,15.6975697 32.7675628,12.1957252 C29.6412826,8.69388065 24.953062,8.24444444 20,8.24444444 C14.9317181,8.24444444 10.3860293,8.54118918 7.00850596,12.4690165 C3.63098267,16.3968438 -0.524553571,26.1889684 -0.524553571,34.6115994 C-0.524553571,49.2471453 20,53 20,53 Z" id="Oval-9"></path>
                    </g>
                </g>
            </g>
        </g>
    </g>
</svg>